<svg width="25" height="24" viewBox="0 0 25 24" fill="currentColor" xmlns="http://www.w3.org/2000/svg">
<g id="Edit">
<g id="Rectangle 1">
<mask id="path-1-outside-1_2818_2727" maskUnits="userSpaceOnUse" x="3.5" y="4" width="17" height="17" fill="currentColor">
<rect fill="white" x="3.5" y="4" width="17" height="17"/>
<path d="M14.0858 7.41421L6.89171 14.6083C6.69706 14.8029 6.59974 14.9003 6.53276 15.0186C6.46579 15.1368 6.43241 15.2704 6.36564 15.5374L5.70211 18.1915C5.61186 18.5526 5.56673 18.7331 5.66682 18.8332C5.7669 18.9333 5.94742 18.8881 6.30844 18.7979L6.30845 18.7979L8.96257 18.1344C9.22963 18.0676 9.36316 18.0342 9.48145 17.9672C9.59974 17.9003 9.69706 17.8029 9.89171 17.6083L17.0858 10.4142L17.0858 10.4142C17.7525 9.74755 18.0858 9.41421 18.0858 9C18.0858 8.58579 17.7525 8.25245 17.0858 7.58579L16.9142 7.41421C16.2475 6.74755 15.9142 6.41421 15.5 6.41421C15.0858 6.41421 14.7525 6.74755 14.0858 7.41421Z"/>
</mask>
<path d="M6.89171 14.6083L8.30593 16.0225L8.30593 16.0225L6.89171 14.6083ZM14.0858 7.41421L12.6716 6L12.6716 6L14.0858 7.41421ZM16.9142 7.41421L15.5 8.82843L15.5 8.82843L16.9142 7.41421ZM17.0858 7.58579L18.5 6.17157L18.5 6.17157L17.0858 7.58579ZM17.0858 10.4142L18.5 11.8284L17.0858 10.4142ZM9.89171 17.6083L8.4775 16.1941L8.4775 16.1941L9.89171 17.6083ZM6.36564 15.5374L8.30593 16.0225L8.30593 16.0225L6.36564 15.5374ZM5.70211 18.1915L3.76183 17.7065H3.76183L5.70211 18.1915ZM6.30845 18.7979L5.82338 16.8576L5.73624 16.8794L5.65141 16.9089L6.30845 18.7979ZM8.96257 18.1344L8.47751 16.1941L8.4775 16.1941L8.96257 18.1344ZM5.66682 18.8332L7.08103 17.419L7.08103 17.419L5.66682 18.8332ZM6.30844 18.7979L6.79351 20.7382L6.88065 20.7164L6.96549 20.6869L6.30844 18.7979ZM9.48145 17.9672L8.49605 16.2268L8.49605 16.2268L9.48145 17.9672ZM17.0858 10.4142L18.5 11.8284L18.5 11.8284L17.0858 10.4142ZM6.53276 15.0186L4.79236 14.0332L4.79236 14.0332L6.53276 15.0186ZM8.30593 16.0225L15.5 8.82843L12.6716 6L5.4775 13.1941L8.30593 16.0225ZM15.5 8.82843L15.6716 9L18.5 6.17157L18.3284 6L15.5 8.82843ZM15.6716 9L8.4775 16.1941L11.3059 19.0225L18.5 11.8284L15.6716 9ZM4.42536 15.0524L3.76183 17.7065L7.6424 18.6766L8.30593 16.0225L4.42536 15.0524ZM6.79352 20.7382L9.44764 20.0746L8.4775 16.1941L5.82338 16.8576L6.79352 20.7382ZM3.76183 17.7065C3.733 17.8218 3.65055 18.1296 3.62259 18.4155C3.5922 18.7261 3.56509 19.5599 4.2526 20.2474L7.08103 17.419C7.34671 17.6847 7.49914 18.0005 7.56644 18.2928C7.62513 18.5478 7.60965 18.7429 7.60358 18.8049C7.59699 18.8724 7.58792 18.904 7.597 18.8631C7.60537 18.8253 7.61788 18.7747 7.6424 18.6766L3.76183 17.7065ZM5.65141 16.9089L5.6514 16.9089L6.96549 20.6869L6.96549 20.6869L5.65141 16.9089ZM5.82338 16.8576C5.72531 16.8821 5.67467 16.8946 5.63694 16.903C5.59595 16.9121 5.62762 16.903 5.69506 16.8964C5.75712 16.8903 5.95223 16.8749 6.20717 16.9336C6.49955 17.0009 6.81535 17.1533 7.08103 17.419L4.2526 20.2474C4.94011 20.9349 5.77387 20.9078 6.08449 20.8774C6.37039 20.8494 6.67822 20.767 6.79351 20.7382L5.82338 16.8576ZM8.4775 16.1941C8.45279 16.2188 8.4317 16.2399 8.41214 16.2593C8.39271 16.2787 8.37671 16.2945 8.36293 16.308C8.34916 16.3215 8.33911 16.3312 8.33172 16.3382C8.32812 16.3416 8.32545 16.3441 8.3236 16.3458C8.32176 16.3475 8.3209 16.3483 8.32092 16.3482C8.32094 16.3482 8.32198 16.3473 8.32395 16.3456C8.32592 16.3439 8.32893 16.3413 8.33291 16.338C8.34086 16.3314 8.35292 16.3216 8.36866 16.3098C8.38455 16.2979 8.40362 16.2843 8.42564 16.2699C8.44776 16.2553 8.47131 16.2408 8.49605 16.2268L10.4668 19.7076C10.876 19.476 11.1864 19.1421 11.3059 19.0225L8.4775 16.1941ZM9.44764 20.0746C9.61169 20.0336 10.0577 19.9393 10.4669 19.7076L8.49605 16.2268C8.52079 16.2128 8.5453 16.2001 8.56917 16.1886C8.59292 16.1772 8.61438 16.1678 8.63277 16.1603C8.65098 16.1529 8.66553 16.1475 8.67529 16.1441C8.68017 16.1424 8.68394 16.1412 8.68642 16.1404C8.6889 16.1395 8.69024 16.1391 8.69026 16.1391C8.69028 16.1391 8.68918 16.1395 8.68677 16.1402C8.68435 16.1409 8.68084 16.1419 8.67606 16.1432C8.66625 16.1459 8.65278 16.1496 8.63414 16.1544C8.61548 16.1593 8.59368 16.1649 8.5671 16.1716C8.54034 16.1784 8.5114 16.1856 8.47751 16.1941L9.44764 20.0746ZM15.6716 9C15.8435 9.17192 15.9698 9.29842 16.0738 9.40785C16.1786 9.518 16.2263 9.57518 16.2457 9.60073C16.2644 9.62524 16.2226 9.57638 16.1774 9.46782C16.1254 9.34332 16.0858 9.18102 16.0858 9H20.0858C20.0858 8.17978 19.7282 7.57075 19.4258 7.1744C19.1586 6.82421 18.7934 6.46493 18.5 6.17157L15.6716 9ZM18.5 11.8284L18.5 11.8284L15.6716 8.99999L15.6716 9L18.5 11.8284ZM18.5 11.8284C18.7934 11.5351 19.1586 11.1758 19.4258 10.8256C19.7282 10.4292 20.0858 9.82022 20.0858 9H16.0858C16.0858 8.81898 16.1254 8.65668 16.1774 8.53218C16.2226 8.42362 16.2644 8.37476 16.2457 8.39927C16.2263 8.42482 16.1786 8.482 16.0738 8.59215C15.9698 8.70157 15.8435 8.82807 15.6716 9L18.5 11.8284ZM15.5 8.82843C15.6719 8.6565 15.7984 8.53019 15.9078 8.42615C16.018 8.32142 16.0752 8.27375 16.1007 8.25426C16.1252 8.23555 16.0764 8.27736 15.9678 8.32264C15.8433 8.37455 15.681 8.41421 15.5 8.41421V4.41421C14.6798 4.41421 14.0707 4.77177 13.6744 5.07417C13.3242 5.34136 12.9649 5.70664 12.6716 6L15.5 8.82843ZM18.3284 6C18.0351 5.70665 17.6758 5.34136 17.3256 5.07417C16.9293 4.77177 16.3202 4.41421 15.5 4.41421V8.41421C15.319 8.41421 15.1567 8.37455 15.0322 8.32264C14.9236 8.27736 14.8748 8.23555 14.8993 8.25426C14.9248 8.27375 14.982 8.32142 15.0922 8.42615C15.2016 8.53019 15.3281 8.6565 15.5 8.82843L18.3284 6ZM5.4775 13.1941C5.35793 13.3136 5.02401 13.624 4.79236 14.0332L8.27316 16.0039C8.25915 16.0287 8.2447 16.0522 8.23014 16.0744C8.21565 16.0964 8.20207 16.1155 8.19016 16.1313C8.17837 16.1471 8.16863 16.1591 8.16202 16.1671C8.15871 16.1711 8.15613 16.1741 8.15442 16.1761C8.15271 16.178 8.15178 16.1791 8.15176 16.1791C8.15174 16.1791 8.15252 16.1782 8.15422 16.1764C8.15593 16.1745 8.15842 16.1719 8.16184 16.1683C8.16884 16.1609 8.17852 16.1508 8.192 16.1371C8.2055 16.1233 8.22132 16.1073 8.24066 16.0879C8.26013 16.0683 8.28122 16.0472 8.30593 16.0225L5.4775 13.1941ZM8.30593 16.0225C8.3144 15.9886 8.32164 15.9597 8.32839 15.9329C8.3351 15.9063 8.34068 15.8845 8.34556 15.8659C8.35043 15.8472 8.35407 15.8337 8.3568 15.8239C8.35813 15.8192 8.35914 15.8157 8.35984 15.8132C8.36054 15.8108 8.36088 15.8097 8.36088 15.8097C8.36087 15.8098 8.36046 15.8111 8.35965 15.8136C8.35884 15.8161 8.35758 15.8198 8.35588 15.8247C8.35246 15.8345 8.34713 15.849 8.3397 15.8672C8.3322 15.8856 8.32284 15.9071 8.31141 15.9308C8.29993 15.9547 8.28717 15.9792 8.27316 16.0039L4.79236 14.0332C4.56071 14.4423 4.46637 14.8883 4.42536 15.0524L8.30593 16.0225Z" fill="currentColor" mask="url(#path-1-outside-1_2818_2727)"/>
</g>
<path id="Vector 107" d="M13 7.5L16 5.5L19 8.5L17 11.5L13 7.5Z" fill="currentColor"/>
</g>
</svg>
