<svg width="24" height="24" viewBox="0 0 24 24" fill="none" xmlns="http://www.w3.org/2000/svg">
<path d="M17 3H19C20.1046 3 21 3.89543 21 5V7M17 21H19C20.1046 21 21 20.1046 21 19V17M7 3H5C3.89543 3 3 3.89543 3 5V7M7 21H5C3.89543 21 3 20.1046 3 19V17" stroke="#1A56C4" stroke-width="2" stroke-linecap="round"/>
<path d="M14.0664 15.9978L14.0001 15L14.0005 16.9956L14.0664 15.9978ZM18.6877 14.9142L17.7674 15.3055V15.3055L18.6877 14.9142ZM14.0835 13.7504L13.3861 13.0338L12.6482 13.7518L13.3875 14.4684L14.0835 13.7504ZM14.8319 15.0178L15.7871 14.7216L14.8319 15.0178ZM14.133 15L14.1323 15L14.0005 16.9956C14.0444 16.9985 14.0886 17 14.133 17V15ZM17.8675 15H14.133V17H17.8675V15ZM17.7674 15.3055C17.7563 15.2794 17.7453 15.2308 17.7541 15.1712C17.7625 15.1147 17.785 15.0723 17.8058 15.046C17.8444 14.997 17.8754 15 17.8675 15V17C18.4611 17 19.0198 16.7369 19.377 16.2834C19.7485 15.8118 19.877 15.1557 19.608 14.523L17.7674 15.3055ZM16.0002 14C16.9745 14 17.4732 14.6134 17.7674 15.3055L19.608 14.523C19.172 13.4974 18.1399 12 16.0002 12V14ZM14.7809 14.4671C15.0512 14.2041 15.4232 14 16.0002 14V12C14.8634 12 14.001 12.4354 13.3861 13.0338L14.7809 14.4671ZM13.3875 14.4684C13.6259 14.6996 13.7808 15.0044 13.8768 15.314L15.7871 14.7216C15.6274 14.2069 15.3325 13.5684 14.7795 13.0324L13.3875 14.4684ZM13.8768 15.314C13.8669 15.2821 13.861 15.2318 13.8731 15.174C13.8848 15.1186 13.9087 15.0766 13.931 15.0495C13.9525 15.0233 13.9721 15.0111 13.9824 15.0059C13.9932 15.0006 13.9995 15.0001 14.0001 15L14.1327 16.9956C14.6495 16.9613 15.1429 16.7245 15.4757 16.3199C15.8224 15.8983 15.9711 15.3152 15.7871 14.7216L13.8768 15.314Z" fill="#1A56C4"/>
<path d="M9.91645 13.7504L10.6125 14.4684L11.3518 13.7518L10.6138 13.0337L9.91645 13.7504ZM5.31228 14.9142L6.23257 15.3055L5.31228 14.9142ZM9.93356 15.9978L9.99946 16.9956L9.99979 15L9.93356 15.9978ZM9.16802 15.0178L10.1232 15.314L10.1232 15.314L9.16802 15.0178ZM7.99975 14C8.57678 14 8.94875 14.2041 9.21905 14.4671L10.6138 13.0337C9.99896 12.4354 9.13661 12 7.99975 12V14ZM6.23257 15.3055C6.52676 14.6134 7.02547 14 7.99975 14V12C5.86012 12 4.82801 13.4973 4.39199 14.523L6.23257 15.3055ZM6.13253 15C6.12463 15 6.15562 14.997 6.1942 15.046C6.21498 15.0723 6.23749 15.1147 6.24584 15.1712C6.25464 15.2308 6.24364 15.2794 6.23257 15.3055L4.39199 14.523C4.12302 15.1557 4.2515 15.8117 4.62299 16.2834C4.98015 16.7369 5.53892 17 6.13253 17V15ZM9.86697 15H6.13253V17H9.86697V15ZM9.86765 15L9.86697 15V17C9.91136 17 9.95554 16.9985 9.99946 16.9956L9.86765 15ZM9.99979 15C10.0005 15.0001 10.0067 15.0006 10.0175 15.0059C10.0279 15.0111 10.0474 15.0233 10.0689 15.0495C10.0912 15.0766 10.1151 15.1186 10.1268 15.174C10.1389 15.2318 10.133 15.2821 10.1232 15.314L8.21289 14.7216C8.02883 15.3152 8.17755 15.8983 8.52429 16.3199C8.8571 16.7245 9.35043 16.9613 9.86732 16.9956L9.99979 15ZM10.1232 15.314C10.2192 15.0044 10.374 14.6996 10.6125 14.4684L9.22043 13.0324C8.66745 13.5684 8.3725 14.2069 8.21289 14.7216L10.1232 15.314Z" fill="#1A56C4"/>
<path d="M12 13C13.8516 13 14.5604 14.1429 14.8317 15.0178C14.9953 15.5453 14.5523 16 14 16H10C9.44772 16 9.00469 15.5453 9.16826 15.0178C9.43957 14.1429 10.1484 13 12 13Z" stroke="#1A56C4" stroke-width="2" stroke-linecap="round"/>
<circle cx="12" cy="9" r="2" fill="#1A56C4"/>
<circle cx="16" cy="9" r="2" fill="#1A56C4"/>
<circle cx="8" cy="9" r="2" fill="#1A56C4"/>
</svg>
