<svg width="16" height="16" viewBox="0 0 16 16" fill="none" xmlns="http://www.w3.org/2000/svg">
<g id="Group 8726">
<circle id="Ellipse 46" cx="6" cy="4" r="3" stroke="#1A56C4" stroke-width="2" stroke-linecap="round"/>
<path id="Ellipse 47" d="M9.26795 4C9.53317 3.54063 9.97 3.20543 10.4824 3.06815C10.9947 2.93086 11.5406 3.00273 12 3.26795C12.4594 3.53317 12.7946 3.97 12.9319 4.48236C13.0691 4.99472 12.9973 5.54063 12.7321 6C12.4668 6.45937 12.03 6.79457 11.5176 6.93185C11.0053 7.06914 10.4594 6.99727 10 6.73205C9.54063 6.46683 9.20543 6.03 9.06815 5.51764C8.93086 5.00528 9.00273 4.45937 9.26795 4L9.26795 4Z" stroke="#1A56C4" stroke-width="2"/>
<path id="Subtract" d="M10.8821 14L9.90174 14.1974L10.0634 15H10.8821V14ZM14.7206 12.9042L15.6631 12.5699L14.7206 12.9042ZM8.78125 10.7105L8.17639 9.9142L7.01983 10.7927L8.25312 11.5597L8.78125 10.7105ZM13.8676 13H10.8821V15H13.8676V13ZM13.7782 13.2384C13.7711 13.2186 13.7646 13.181 13.773 13.1354C13.7808 13.0921 13.7987 13.0593 13.8156 13.0383C13.8478 12.9982 13.8744 13 13.8676 13V15C15.0137 15 16.1418 13.9194 15.6631 12.5699L13.7782 13.2384ZM11.0004 11C12.642 11 13.4031 12.1811 13.7782 13.2384L15.6631 12.5699C15.1981 11.2588 13.949 9 11.0004 9V11ZM9.38611 11.5069C9.77058 11.2148 10.2824 11 11.0004 11V9C9.83854 9 8.9032 9.36215 8.17639 9.9142L9.38611 11.5069ZM8.25312 11.5597C9.29227 12.206 9.72752 13.3324 9.90174 14.1974L11.8624 13.8026C11.6444 12.7204 11.0378 10.9364 9.30938 9.86137L8.25312 11.5597Z" fill="#1A56C4"/>
<path id="Rectangle 4160" d="M6 10C9.57154 10 10.5919 12.5512 10.8834 14.0089C10.9917 14.5504 10.5523 15 10 15H2C1.44772 15 1.00829 14.5504 1.11659 14.0089C1.4081 12.5512 2.42846 10 6 10Z" stroke="#1A56C4" stroke-width="2" stroke-linecap="round"/>
</g>
</svg>
