<svg width="16" height="10" viewBox="0 0 16 10" fill="none" xmlns="http://www.w3.org/2000/svg">
<g id="Group 8727">
<path id="Subtract" d="M10.0664 8.99781L10.0001 8.00001L10.0005 9.99563L10.0664 8.99781ZM14.6877 7.91422L13.7674 8.30545V8.30545L14.6877 7.91422ZM10.0835 6.75043L9.38611 6.03375L8.64822 6.7518L9.38749 7.46844L10.0835 6.75043ZM10.8319 8.01781L11.7871 7.72163L10.8319 8.01781ZM10.133 8L10.1323 7.99998L10.0005 9.99563C10.0444 9.99854 10.0886 10 10.133 10V8ZM13.8675 8H10.133V10H13.8675V8ZM13.7674 8.30545C13.7563 8.2794 13.7453 8.23079 13.7541 8.17123C13.7625 8.11475 13.785 8.07235 13.8058 8.04596C13.8444 7.99698 13.8754 8 13.8675 8V10C14.4611 10 15.0198 9.73691 15.377 9.28343C15.7485 8.81175 15.877 8.15567 15.608 7.523L13.7674 8.30545ZM12.0002 7C12.9745 7 13.4732 7.61344 13.7674 8.30545L15.608 7.523C15.172 6.49736 14.1399 5 12.0002 5V7ZM10.7809 7.46711C11.0512 7.20407 11.4232 7 12.0002 7V5C10.8634 5 10.001 5.43539 9.38611 6.03375L10.7809 7.46711ZM9.38749 7.46844C9.62595 7.6996 9.78079 8.00439 9.87679 8.31398L11.7871 7.72163C11.6274 7.2069 11.3325 6.56845 10.7795 6.03242L9.38749 7.46844ZM9.87679 8.31398C9.8669 8.2821 9.861 8.23181 9.87314 8.17402C9.88479 8.11856 9.90869 8.07658 9.931 8.04946C9.95253 8.02328 9.97207 8.01109 9.98241 8.00595C9.99325 8.00056 9.99946 8.00005 10.0001 8.00001L10.1327 9.99561C10.6495 9.96129 11.1429 9.72453 11.4757 9.3199C11.8224 8.89832 11.9711 8.31519 11.7871 7.72163L9.87679 8.31398Z" fill="#1A56C4"/>
<path id="Subtract_2" d="M5.91645 6.7504L6.61247 7.46843L7.35177 6.75178L6.61385 6.03372L5.91645 6.7504ZM1.31228 7.91422L2.23257 8.30545L1.31228 7.91422ZM5.93356 8.99781L5.99946 9.99564L5.99979 8.00001L5.93356 8.99781ZM5.16802 8.01781L6.12315 8.31399L6.12315 8.31398L5.16802 8.01781ZM3.99975 7C4.57678 7 4.94875 7.20406 5.21905 7.46709L6.61385 6.03372C5.99896 5.43537 5.13661 5 3.99975 5V7ZM2.23257 8.30545C2.52676 7.61344 3.02547 7 3.99975 7V5C1.86012 5 0.828006 6.49735 0.391988 7.52298L2.23257 8.30545ZM2.13253 8C2.12463 8 2.15562 7.99697 2.1942 8.04596C2.21498 8.07235 2.23749 8.11475 2.24584 8.17123C2.25464 8.23079 2.24364 8.2794 2.23257 8.30545L0.391988 7.52298C0.123024 8.15566 0.251502 8.81174 0.62299 9.28342C0.980151 9.73691 1.53892 10 2.13253 10V8ZM5.86697 8H2.13253V10H5.86697V8ZM5.86765 7.99998L5.86697 8V10C5.91136 10 5.95554 9.99854 5.99946 9.99564L5.86765 7.99998ZM5.99979 8.00001C6.00048 8.00005 6.00669 8.00056 6.01753 8.00595C6.02787 8.01109 6.04741 8.02328 6.06894 8.04946C6.09124 8.07658 6.11515 8.11856 6.1268 8.17402C6.13894 8.23181 6.13304 8.2821 6.12315 8.31399L4.21289 7.72163C4.02883 8.3152 4.17755 8.89834 4.52429 9.31991C4.8571 9.72455 5.35043 9.9613 5.86732 9.99561L5.99979 8.00001ZM6.12315 8.31398C6.21916 8.00438 6.374 7.69959 6.61247 7.46843L5.22043 6.03238C4.66745 6.56842 4.3725 7.20689 4.21289 7.72163L6.12315 8.31398Z" fill="#1A56C4"/>
<path id="Rectangle 4160" d="M8 6C9.85165 6 10.5604 7.14287 10.8317 8.01781C10.9953 8.54531 10.5523 9 10 9H6C5.44772 9 5.00469 8.54531 5.16826 8.01781C5.43957 7.14287 6.14835 6 8 6Z" stroke="#1A56C4" stroke-width="2" stroke-linecap="round"/>
<circle id="Ellipse 203" cx="8" cy="2" r="2" fill="#1A56C4"/>
<circle id="Ellipse 204" cx="12" cy="2" r="2" fill="#1A56C4"/>
<circle id="Ellipse 205" cx="4" cy="2" r="2" fill="#1A56C4"/>
</g>
</svg>
