<svg width="52" height="74" viewBox="0 0 52 74" fill="none" xmlns="http://www.w3.org/2000/svg">
<g id="Group 287">
<path id="Vector" d="M51.8332 44.5824C51.655 50.2996 50.4121 57.9772 47.3495 65.2937C46.8805 66.424 46.5147 67.6059 45.9472 68.6847C43.8835 72.6009 39.7657 74.4628 35.4696 73.4216C31.483 72.4555 27.881 70.5841 24.4338 68.422C13.5435 61.5839 6.07689 52.0021 1.86989 39.8782C0.594192 36.1871 -0.0483477 32.3741 0.195536 28.4345C0.45349 24.2931 2.49367 21.2399 5.80955 20.1236C7.77 19.467 9.75859 19.4154 11.7659 19.8516C16.2309 20.8272 19.9032 23.266 23.3176 26.1645C25.5266 28.0405 30.1885 32.9088 30.1932 32.8994C30.1932 32.8947 33.0073 26.2958 35.0428 23.7725C36.0933 22.4734 37.294 21.2117 38.6635 20.2784C41.3509 18.4446 44.3197 18.9324 46.5663 21.3149C48.5033 23.3692 49.5445 25.8924 50.2996 28.5517C51.5893 33.087 51.9552 37.7302 51.8332 44.5918V44.5824Z" fill="#1A56C4"/>
<path id="Vector_2" d="M21.2308 13.248C17.9524 16.1418 12.1977 14.8943 9.53841 11.63C9.22887 11.2501 6.97294 8.38913 8.01883 5.01228C8.66606 2.9252 10.3779 1.17112 12.9387 0.439464C15.4854 -0.287497 17.6053 0.340973 18.1916 0.561406C18.473 0.664587 22.7926 2.3577 23.4257 6.77106C23.4492 6.94928 23.9463 10.8561 21.2308 13.248Z" fill="#1A56C4"/>
<path id="Vector_3" d="M39.4615 8.82999C39.4521 11.6159 37.5292 14.1907 34.9168 14.9224C32.4264 15.6165 29.9969 14.1485 29.4529 11.6206C28.8573 8.82061 30.466 5.72047 33.0971 4.53388C36.1363 3.15969 39.5835 5.2327 39.4615 8.8253V8.82999Z" fill="#1A56C4"/>
</g>
</svg>
