<svg width="68" height="86" viewBox="0 0 68 86" fill="none" xmlns="http://www.w3.org/2000/svg">
<g id="Group 9035">
<path id="Vector" d="M34 75.5654C52.7779 75.5654 68 60.3433 68 41.5654C68 22.7875 52.7779 7.56543 34 7.56543C15.2221 7.56543 0 22.7875 0 41.5654C0 60.3433 15.2221 75.5654 34 75.5654Z" fill="#FC2C51"/>
<g id="Group 9047">
<path id="Vector_2" d="M39.5338 73.292C39.2129 71.7353 40.02 70.1622 41.4754 69.5072L45.997 67.4766C47.9916 66.5815 50.3037 67.7531 50.7502 69.8824L53.1979 81.5691C53.6412 83.682 52.0204 85.6633 49.8505 85.6633H44.879C43.2549 85.6633 41.8558 84.5279 41.5316 82.9481L39.5371 73.292H39.5338Z" fill="#FC2C51"/>
<path id="Vector_3" d="M24.3546 72.3278C23.9147 70.2149 25.5355 68.2369 27.702 68.2369H33.2755C34.9096 68.2369 36.3153 69.3888 36.6295 70.9817L38.7266 81.612C39.1401 83.715 37.5259 85.6699 35.3726 85.6699H29.9182C28.2974 85.6699 26.8983 84.5378 26.5708 82.9581L24.3546 72.3278Z" fill="#FC2C51"/>
</g>
<path id="Vector_4" d="M62.4992 45.3131C62.3735 49.3452 61.497 54.76 59.337 59.92C59.0062 60.7172 58.7482 61.5507 58.348 62.3115C56.8926 65.0734 53.9884 66.3866 50.9586 65.6523C48.147 64.9709 45.6067 63.6511 43.1755 62.1262C35.495 57.3036 30.2291 50.5459 27.2621 41.9955C26.3591 39.389 25.906 36.6998 26.078 33.9214C26.2599 31.0007 27.6987 28.8473 30.0373 28.0601C31.4199 27.597 32.8224 27.5606 34.2381 27.8682C37.387 28.5563 39.977 30.2763 42.385 32.3204C43.9429 33.6435 47.2308 37.0769 47.2341 37.0703C47.2341 37.067 49.2187 32.413 50.6543 30.6335C51.3952 29.7173 52.242 28.8275 53.2078 28.1692C55.1032 26.8759 57.1969 27.2199 58.7813 28.9003C60.1474 30.349 60.8817 32.1286 61.4143 34.0041C62.3239 37.2026 62.5819 40.4773 62.4959 45.3164V45.3098L62.4992 45.3131Z" fill="#1A56C4"/>
<path id="Vector_5" d="M40.9168 23.2143C38.6047 25.2552 34.5462 24.3753 32.6707 22.0731C32.4524 21.8052 30.8614 19.7875 31.599 17.4059C32.0555 15.934 33.2628 14.6969 35.0688 14.1809C36.8649 13.6682 38.36 14.1115 38.7734 14.2669C38.9719 14.3397 42.0183 15.5338 42.4648 18.6463C42.4814 18.772 42.832 21.5274 40.9168 23.2143Z" fill="white"/>
<path id="Vector_6" d="M53.7739 20.0984C53.7673 22.0632 52.4111 23.8791 50.5687 24.3951C48.8123 24.8846 47.0989 23.8493 46.7152 22.0665C46.2952 20.0918 47.4297 17.9054 49.2853 17.0685C51.4287 16.0993 53.8599 17.5614 53.7739 20.0951V20.0984Z" fill="white"/>
<path id="Vector_7" d="M42.2061 25.1162C43.1421 26.4393 45.3418 26.5187 46.4565 25.5131" stroke="#010101" stroke-width="2.5" stroke-miterlimit="10" stroke-linecap="round"/>
<path id="Vector_8" d="M40.2619 22.0863C41.2046 22.0863 41.9719 21.3222 41.9719 20.3762C41.9719 19.4302 41.2079 18.6661 40.2619 18.6661C39.3159 18.6661 38.5518 19.4302 38.5518 20.3762C38.5518 21.3222 39.3159 22.0863 40.2619 22.0863Z" fill="#010101"/>
<path id="Vector_9" d="M49.9369 21.9473C50.2214 21.1237 49.884 20.2571 49.1794 20.0123C48.4749 19.7675 47.6744 20.2405 47.3899 21.0642C47.1055 21.8878 47.4429 22.7544 48.1474 22.9992C48.8519 23.2439 49.6524 22.7709 49.9369 21.9473Z" fill="#010101"/>
<path id="Vector_10" d="M40.0499 20.3763C40.4043 20.3763 40.6916 20.089 40.6916 19.7346C40.6916 19.3802 40.4043 19.0929 40.0499 19.0929C39.6955 19.0929 39.4082 19.3802 39.4082 19.7346C39.4082 20.089 39.6955 20.3763 40.0499 20.3763Z" fill="white"/>
<path id="Vector_11" d="M48.7082 21.0561C48.8306 20.8109 48.7496 20.5222 48.5274 20.4113C48.3051 20.3003 48.0257 20.4091 47.9033 20.6542C47.7809 20.8994 47.8618 21.1881 48.0841 21.2991C48.3064 21.41 48.5858 21.3013 48.7082 21.0561Z" fill="white"/>
<path id="Vector_12" d="M28.1715 56.9133C37.9759 56.9133 45.924 53.0896 45.924 48.3728C45.924 43.656 37.9759 39.8323 28.1715 39.8323C18.367 39.8323 10.4189 43.656 10.4189 48.3728C10.4189 53.0896 18.367 56.9133 28.1715 56.9133Z" fill="#FC2C51"/>
<path id="Vector_13" d="M62.9688 36.1838C57.2001 39.3593 50.8526 43.1929 52.7248 47.0762C54.5143 50.7907 60.7394 51.4456 66.7363 48.73L62.9688 36.1805V36.1838Z" fill="#FC2C51"/>
<path id="Vector_14" d="M31.9985 8.32625C31.9985 12.9008 28.2872 16.4368 23.7126 16.6121C12.6715 17.0288 4.30628 8.99771 8.81138 8.32625C18.3442 6.91055 16.429 0.84089 23.7126 0.0404228C28.2607 -0.459042 31.9985 3.74837 31.9985 8.32625Z" fill="#FC2C51"/>
</g>
</svg>
