<svg width="24" height="24" viewBox="0 0 24 24" fill="none" xmlns="http://www.w3.org/2000/svg">
<path d="M16.1287 7.05895L19.6717 8.21412L19.6153 4.48803L16.1287 7.05895Z" fill="black" stroke="black" stroke-width="2" stroke-linecap="round" stroke-linejoin="round"/>
<path d="M7.78697 16.2878L4.10527 15.7116L4.75425 19.3812L7.78697 16.2878Z" fill="black" stroke="black" stroke-width="2" stroke-linecap="round" stroke-linejoin="round"/>
<path d="M4.10938 11.5723C4.45637 9.1068 6.60776 4.17578 12.4373 4.17578C13.9988 4.17578 17.6423 4.96474 19.7243 8.1206" stroke="black" stroke-width="2" stroke-linecap="round"/>
<path d="M21.538 12.5206C21.6074 11.9727 21.2195 11.4722 20.6716 11.4028C20.1237 11.3334 19.6232 11.7213 19.5538 12.2692L21.538 12.5206ZM19.5538 12.2692C19.3977 13.5016 18.8251 15.3795 17.6437 16.9238C16.4876 18.4349 14.7674 19.6133 12.2179 19.6133V21.6133C15.4981 21.6133 17.7684 20.0522 19.2321 18.139C20.6705 16.259 21.3471 14.0277 21.538 12.5206L19.5538 12.2692ZM12.2179 19.6133C10.8972 19.6133 7.64194 18.8372 5.79085 15.7196L4.07114 16.7407C6.38402 20.6361 10.4157 21.6133 12.2179 21.6133V19.6133Z" fill="black"/>
</svg>
