<svg width="71" height="89" viewBox="0 0 71 89" fill="none" xmlns="http://www.w3.org/2000/svg">
<g id="Group 9034">
<path id="Vector" d="M64.6106 20.8305C67.0261 18.4149 66.9913 14.4638 64.5328 12.0053C62.0743 9.54687 58.1232 9.51206 55.7077 11.9276C53.2922 14.3431 53.327 18.2942 55.7854 20.7527C58.2439 23.2112 62.195 23.246 64.6106 20.8305Z" fill="#1A56C4"/>
<path id="Vector_2" d="M35.3217 78.4025C54.8295 78.4025 70.6433 62.5886 70.6433 43.0808C70.6433 23.573 54.8295 7.75916 35.3217 7.75916C15.8138 7.75916 0 23.5695 0 43.0774C0 62.5852 15.8138 78.399 35.3217 78.399V78.4025Z" fill="#1A56C4"/>
<g id="Group 9046">
<path id="Vector_3" d="M41.0707 76.0738C40.7373 74.4482 41.5758 72.8053 43.0878 72.1214L47.7852 70.0008C49.8573 69.066 52.2592 70.2895 52.7231 72.5132L55.266 84.7176C55.7265 86.9241 54.0427 88.9931 51.7885 88.9931H46.6237C44.9365 88.9931 43.4829 87.8074 43.1462 86.1577L41.0741 76.0738H41.0707Z" fill="#1A56C4"/>
<path id="Vector_4" d="M25.3018 75.0668C24.8447 72.8603 26.5285 70.7947 28.7793 70.7947H34.5695C36.267 70.7947 37.7274 71.9976 38.0539 73.6611L40.2325 84.7623C40.662 86.9584 38.9851 89 36.7481 89H31.0816C29.3978 89 27.9443 87.8177 27.6041 86.168L25.3018 75.0668Z" fill="#1A56C4"/>
</g>
<path id="Vector_5" d="M64.932 46.9741C64.8014 51.1629 63.8908 56.7881 61.6469 62.1488C61.3033 62.9769 61.0352 63.8429 60.6195 64.6332C59.1075 67.5025 56.0904 68.8667 52.9428 68.1039C50.0219 67.396 47.3829 66.0249 44.8572 64.4408C36.8781 59.4307 31.4075 52.4103 28.3252 43.5275C27.3871 40.8197 26.9163 38.026 27.095 35.1395C27.284 32.1053 28.7788 29.8682 31.2082 29.0504C32.6446 28.5693 34.1016 28.5315 35.5723 28.8511C38.8437 29.5658 41.5343 31.3527 44.0359 33.4763C45.6544 34.8508 49.0701 38.4177 49.0735 38.4108C49.0735 38.4074 51.1353 33.5725 52.6266 31.7238C53.3964 30.772 54.2761 29.8476 55.2795 29.1638C57.2485 27.8202 59.4236 28.1776 61.0696 29.9232C62.4888 31.4283 63.2517 33.277 63.8049 35.2254C64.7499 38.5483 65.0179 41.9502 64.9286 46.9775V46.9707L64.932 46.9741Z" fill="#FC2C51"/>
<path id="Vector_6" d="M42.5102 24.0162C40.1082 26.1364 35.8919 25.2223 33.9435 22.8307C33.7167 22.5523 32.0639 20.4562 32.8302 17.9821C33.3044 16.4529 34.5586 15.1677 36.4348 14.6317C38.3007 14.0991 39.8539 14.5595 40.2835 14.721C40.4897 14.7966 43.6545 16.0371 44.1184 19.2707C44.1356 19.4013 44.4998 22.2637 42.5102 24.0162Z" fill="white"/>
<path id="Vector_7" d="M55.8642 20.7793C55.8573 22.8204 54.4484 24.707 52.5344 25.243C50.7097 25.7516 48.9297 24.676 48.5311 22.8239C48.0947 20.7724 49.2734 18.501 51.2011 17.6316C53.4279 16.6248 55.9535 18.1436 55.8642 20.7758V20.7793Z" fill="white"/>
<path id="Vector_8" d="M43.8467 25.9922C44.8192 27.3667 47.1043 27.4492 48.2623 26.4045" stroke="#010101" stroke-width="2.5" stroke-miterlimit="10" stroke-linecap="round"/>
<path id="Vector_9" d="M41.8303 22.841C42.8096 22.841 43.6068 22.0472 43.6068 21.0644C43.6068 20.0816 42.8131 19.2878 41.8303 19.2878C40.8475 19.2878 40.0537 20.0816 40.0537 21.0644C40.0537 22.0472 40.8475 22.841 41.8303 22.841Z" fill="#010101"/>
<path id="Vector_10" d="M51.8777 22.7002C52.1732 21.8446 51.8227 20.9443 51.0908 20.69C50.3589 20.4357 49.5273 20.9271 49.2318 21.7827C48.9362 22.6384 49.2867 23.5387 50.0187 23.793C50.7506 24.0472 51.5822 23.5559 51.8777 22.7002Z" fill="#010101"/>
<path id="Vector_11" d="M41.6061 21.0679C41.9743 21.0679 42.2727 20.7694 42.2727 20.4013C42.2727 20.0331 41.9743 19.7346 41.6061 19.7346C41.2379 19.7346 40.9395 20.0331 40.9395 20.4013C40.9395 20.7694 41.2379 21.0679 41.6061 21.0679Z" fill="white"/>
<path id="Vector_12" d="M50.6055 21.7716C50.7327 21.5169 50.6486 21.217 50.4177 21.1017C50.1867 20.9864 49.8964 21.0994 49.7693 21.3541C49.6421 21.6088 49.7263 21.9088 49.9572 22.0241C50.1881 22.1393 50.4784 22.0263 50.6055 21.7716Z" fill="white"/>
<path id="Vector_13" d="M29.2668 59.0252C39.4524 59.0252 47.7094 55.0528 47.7094 50.1527C47.7094 45.2525 39.4524 41.2802 29.2668 41.2802C19.0812 41.2802 10.8242 45.2525 10.8242 50.1527C10.8242 55.0528 19.0812 59.0252 29.2668 59.0252Z" fill="#1A56C4"/>
<path id="Vector_14" d="M65.4171 37.49C59.4242 40.7889 52.8299 44.7715 54.7749 48.8057C56.6339 52.6647 63.101 53.3451 69.331 50.5239L65.4171 37.4866V37.49Z" fill="#1A56C4"/>
<path id="Vector_15" d="M21.398 17.2158C26.152 17.2158 30.0059 13.3619 30.0059 8.60792C30.0059 3.8539 26.152 0 21.398 0C16.6439 0 12.79 3.8539 12.79 8.60792C12.79 13.3619 16.6439 17.2158 21.398 17.2158Z" fill="#1A56C4"/>
</g>
</svg>
