<svg width="24" height="24" viewBox="0 0 24 24" fill="none" xmlns="http://www.w3.org/2000/svg">
<mask id="path-1-inside-1_4705_17751" fill="currentColor">
<path d="M13.9767 1.32857C12.8804 1.54203 11.6863 2.5553 11.4636 3.47815C11.4142 3.65992 11.349 3.70933 11.0684 3.75034C10.5902 3.83237 9.98147 4.17821 9.72606 4.50819C9.22268 5.17563 9.06702 5.88407 9.36345 6.1805C9.52006 6.33711 9.63471 6.3455 11.9997 6.3455C14.3636 6.3455 14.4793 6.33711 14.6359 6.1805C14.8335 5.98288 14.8419 5.74332 14.6769 5.26605C14.4131 4.52497 13.7708 3.94797 13.0213 3.78298C12.7734 3.72519 12.5758 3.65155 12.5758 3.61053C12.5758 3.46231 13.2842 2.7865 13.6058 2.6215C14.1166 2.34932 15.0395 2.32507 15.665 2.56371C16.283 2.79489 16.9421 3.43716 17.2553 4.0962L17.478 4.5744V11.823L13.2022 11.8481C9.15755 11.8649 8.93466 11.8565 8.99241 11.7241C9.42866 10.7361 9.44544 10.1432 9.09122 9.36855C8.16837 7.37463 5.35133 7.38303 4.43688 9.37694C4.17307 9.96141 4.15629 10.7193 4.41171 11.3625C4.50306 11.6095 4.5767 11.8155 4.56086 11.823C4.55247 11.8313 4.3623 11.9227 4.14883 12.029C3.04421 12.5482 2.97897 14.0313 4.03324 14.5337C4.29705 14.6577 4.32127 14.6903 4.37069 15.2011C4.5767 17.1941 5.93581 19.2541 7.59227 20.0698C7.92972 20.2338 8.20936 20.3988 8.20936 20.424C8.20936 20.6375 7.5093 21.3962 7.13084 21.5855C6.81764 21.7505 6.72722 21.8819 6.72722 22.1951C6.72722 22.4095 7.04043 22.7386 7.25388 22.7386C7.72371 22.7386 8.68756 21.8819 9.10796 21.0914L9.37177 20.5964H11.9249C13.3251 20.5964 14.495 20.5881 14.5368 20.5722C14.5694 20.5638 14.7093 20.7698 14.8491 21.0336C15.1875 21.6675 15.6069 22.1616 16.0851 22.4832C16.5382 22.7796 16.761 22.8048 17.0574 22.5652C17.42 22.2772 17.337 21.8325 16.8682 21.5939C16.431 21.3711 15.7887 20.671 15.7887 20.4156C15.7887 20.3904 16.0684 20.2264 16.4067 20.0614C18.1201 19.2131 19.3637 17.3013 19.619 15.1348C19.6768 14.6901 19.702 14.6491 19.99 14.5009C20.8057 14.0889 20.9623 13.1166 20.3358 12.425C19.9648 12.0129 19.6358 11.8647 19.0839 11.8647H18.6719V8.4212C18.6719 5.6442 18.6467 4.88653 18.5479 4.45866C18.0455 2.33332 15.9948 0.932433 13.9767 1.32857ZM13.2514 5.08517L13.4323 5.2744H12.0154C10.5575 5.2744 10.3356 5.2166 10.8707 4.97796C11.0599 4.895 11.3983 4.87076 12.0983 4.87915C12.9792 4.90339 13.0865 4.92017 13.2514 5.08517ZM7.5261 9.18755C8.38276 9.69744 8.45733 10.9829 7.65754 11.5925C7.23807 11.9141 6.538 11.9551 6.06818 11.6913C5.631 11.4443 5.32617 10.9419 5.32617 10.4637C5.32617 9.30218 6.52121 8.60215 7.5261 9.18755ZM19.4216 13.084C19.5372 13.1828 19.5866 13.29 19.554 13.372C19.5046 13.5035 18.9276 13.5118 11.9828 13.4951L4.461 13.4708L4.43676 13.2816C4.41998 13.1492 4.461 13.0756 4.60176 13.0262C4.70896 12.9768 7.76463 12.9432 12.0078 12.9432C18.9106 12.9358 19.2406 12.9432 19.4213 13.084L19.4216 13.084ZM18.5239 14.9539C18.3841 16.7493 17.2385 18.4626 15.7068 19.1878L15.2529 19.4022H8.74529L8.19345 19.13C7.155 18.6275 6.2741 17.6227 5.81268 16.4286C5.59828 15.8843 5.38387 14.7144 5.48269 14.624C5.49947 14.5997 8.44893 14.5913 12.032 14.5997L18.548 14.624L18.5239 14.9539Z"/>
</mask>
<path d="M13.9767 1.32857C12.8804 1.54203 11.6863 2.5553 11.4636 3.47815C11.4142 3.65992 11.349 3.70933 11.0684 3.75034C10.5902 3.83237 9.98147 4.17821 9.72606 4.50819C9.22268 5.17563 9.06702 5.88407 9.36345 6.1805C9.52006 6.33711 9.63471 6.3455 11.9997 6.3455C14.3636 6.3455 14.4793 6.33711 14.6359 6.1805C14.8335 5.98288 14.8419 5.74332 14.6769 5.26605C14.4131 4.52497 13.7708 3.94797 13.0213 3.78298C12.7734 3.72519 12.5758 3.65155 12.5758 3.61053C12.5758 3.46231 13.2842 2.7865 13.6058 2.6215C14.1166 2.34932 15.0395 2.32507 15.665 2.56371C16.283 2.79489 16.9421 3.43716 17.2553 4.0962L17.478 4.5744V11.823L13.2022 11.8481C9.15755 11.8649 8.93466 11.8565 8.99241 11.7241C9.42866 10.7361 9.44544 10.1432 9.09122 9.36855C8.16837 7.37463 5.35133 7.38303 4.43688 9.37694C4.17307 9.96141 4.15629 10.7193 4.41171 11.3625C4.50306 11.6095 4.5767 11.8155 4.56086 11.823C4.55247 11.8313 4.3623 11.9227 4.14883 12.029C3.04421 12.5482 2.97897 14.0313 4.03324 14.5337C4.29705 14.6577 4.32127 14.6903 4.37069 15.2011C4.5767 17.1941 5.93581 19.2541 7.59227 20.0698C7.92972 20.2338 8.20936 20.3988 8.20936 20.424C8.20936 20.6375 7.5093 21.3962 7.13084 21.5855C6.81764 21.7505 6.72722 21.8819 6.72722 22.1951C6.72722 22.4095 7.04043 22.7386 7.25388 22.7386C7.72371 22.7386 8.68756 21.8819 9.10796 21.0914L9.37177 20.5964H11.9249C13.3251 20.5964 14.495 20.5881 14.5368 20.5722C14.5694 20.5638 14.7093 20.7698 14.8491 21.0336C15.1875 21.6675 15.6069 22.1616 16.0851 22.4832C16.5382 22.7796 16.761 22.8048 17.0574 22.5652C17.42 22.2772 17.337 21.8325 16.8682 21.5939C16.431 21.3711 15.7887 20.671 15.7887 20.4156C15.7887 20.3904 16.0684 20.2264 16.4067 20.0614C18.1201 19.2131 19.3637 17.3013 19.619 15.1348C19.6768 14.6901 19.702 14.6491 19.99 14.5009C20.8057 14.0889 20.9623 13.1166 20.3358 12.425C19.9648 12.0129 19.6358 11.8647 19.0839 11.8647H18.6719V8.4212C18.6719 5.6442 18.6467 4.88653 18.5479 4.45866C18.0455 2.33332 15.9948 0.932433 13.9767 1.32857ZM13.2514 5.08517L13.4323 5.2744H12.0154C10.5575 5.2744 10.3356 5.2166 10.8707 4.97796C11.0599 4.895 11.3983 4.87076 12.0983 4.87915C12.9792 4.90339 13.0865 4.92017 13.2514 5.08517ZM7.5261 9.18755C8.38276 9.69744 8.45733 10.9829 7.65754 11.5925C7.23807 11.9141 6.538 11.9551 6.06818 11.6913C5.631 11.4443 5.32617 10.9419 5.32617 10.4637C5.32617 9.30218 6.52121 8.60215 7.5261 9.18755ZM19.4216 13.084C19.5372 13.1828 19.5866 13.29 19.554 13.372C19.5046 13.5035 18.9276 13.5118 11.9828 13.4951L4.461 13.4708L4.43676 13.2816C4.41998 13.1492 4.461 13.0756 4.60176 13.0262C4.70896 12.9768 7.76463 12.9432 12.0078 12.9432C18.9106 12.9358 19.2406 12.9432 19.4213 13.084L19.4216 13.084ZM18.5239 14.9539C18.3841 16.7493 17.2385 18.4626 15.7068 19.1878L15.2529 19.4022H8.74529L8.19345 19.13C7.155 18.6275 6.2741 17.6227 5.81268 16.4286C5.59828 15.8843 5.38387 14.7144 5.48269 14.624C5.49947 14.5997 8.44893 14.5913 12.032 14.5997L18.548 14.624L18.5239 14.9539Z" fill="currentColor"/>
<path d="M13.9767 1.32857L20.8576 36.6649L20.8841 36.6597L20.9107 36.6545L13.9767 1.32857ZM11.4636 3.47815L46.2033 12.9202L46.3382 12.4238L46.4589 11.9238L11.4636 3.47815ZM11.0684 3.75034L5.86178 -31.8712L5.42094 -31.8067L4.98183 -31.7314L11.0684 3.75034ZM9.72606 4.50819L-18.7425 -17.5268L-18.8804 -17.3487L-19.016 -17.1688L9.72606 4.50819ZM14.6359 6.1805L-10.82 -19.2753L-10.8249 -19.2704L14.6359 6.1805ZM14.6769 5.26605L48.7011 -6.49629L48.6473 -6.65195L48.592 -6.80711L14.6769 5.26605ZM13.0213 3.78298L4.84961 38.8433L5.06517 38.8935L5.28132 38.9411L13.0213 3.78298ZM13.6058 2.6215L30.0393 34.6518L30.2881 34.5242L30.5348 34.3927L13.6058 2.6215ZM15.665 2.56371L2.83238 36.1989L2.94216 36.2408L3.05221 36.2819L15.665 2.56371ZM17.2553 4.0962L49.8876 -11.1068L49.8293 -11.2319L49.7701 -11.3565L17.2553 4.0962ZM17.478 4.5744H53.478V-3.4001L50.1104 -10.6286L17.478 4.5744ZM17.478 11.823L17.6899 47.8223L53.478 47.6117V11.823H17.478ZM13.2022 11.8481L13.3515 47.8478L13.3828 47.8477L13.4141 47.8475L13.2022 11.8481ZM8.99241 11.7241L-23.9406 -2.81599L-23.9725 -2.74386L-24.004 -2.6716L8.99241 11.7241ZM9.09122 9.36855L41.8307 -5.60221L41.7964 -5.67738L41.7617 -5.7524L9.09122 9.36855ZM4.43688 9.37694L-28.2859 -5.63045L-28.3309 -5.53216L-28.3754 -5.43361L4.43688 9.37694ZM4.41171 11.3625L38.177 -1.12372L38.0283 -1.52579L37.8701 -1.9242L4.41171 11.3625ZM4.56086 11.823L-10.7872 -20.7414L-16.4603 -18.0676L-20.895 -13.6329L4.56086 11.823ZM4.14883 12.029L19.4631 44.6092L19.8293 44.4371L20.1916 44.2568L4.14883 12.029ZM4.03324 14.5337L-11.4541 47.032L-11.3664 47.0738L-11.2784 47.1152L4.03324 14.5337ZM4.37069 15.2011L-31.462 18.6678L-31.4506 18.7852L-31.4385 18.9026L4.37069 15.2011ZM7.59227 20.0698L-8.31096 52.3666L-8.22975 52.4066L-8.14834 52.4462L7.59227 20.0698ZM7.13084 21.5855L-8.96966 -10.6135L-9.31058 -10.443L-9.64782 -10.2654L7.13084 21.5855ZM9.10796 21.0914L-22.6615 4.15911L-22.669 4.17323L-22.6765 4.18737L9.10796 21.0914ZM9.37177 20.5964V-15.4036H-12.2351L-22.3977 3.66413L9.37177 20.5964ZM14.5368 20.5722L5.57146 -14.2936L3.63483 -13.7956L1.76526 -13.0862L14.5368 20.5722ZM14.8491 21.0336L-16.9591 37.893L-16.9341 37.9403L-16.9089 37.9875L14.8491 21.0336ZM16.0851 22.4832L-4.00432 52.3565L-3.81608 52.483L-3.62627 52.6072L16.0851 22.4832ZM17.0574 22.5652L-5.33422 -5.62374L-5.45321 -5.52922L-5.57141 -5.4337L17.0574 22.5652ZM16.8682 21.5939L0.522559 53.6691L0.530989 53.6734L0.539422 53.6777L16.8682 21.5939ZM16.4067 20.0614L32.1858 52.4191L32.283 52.3717L32.3799 52.3237L16.4067 20.0614ZM19.619 15.1348L-16.0807 10.4945L-16.1084 10.7077L-16.1336 10.9212L19.619 15.1348ZM19.99 14.5009L3.75808 -17.632L3.63908 -17.5719L3.52052 -17.5109L19.99 14.5009ZM20.3358 12.425L-6.4169 36.5142L-6.38219 36.5527L-6.34736 36.5912L20.3358 12.425ZM18.6719 11.8647H-17.3281V47.8647H18.6719V11.8647ZM18.5479 4.45866L53.6248 -3.64169L53.6037 -3.73277L53.5822 -3.82374L18.5479 4.45866ZM13.2514 5.08517L39.2778 -19.7871L38.9958 -20.0821L38.7073 -20.3707L13.2514 5.08517ZM13.4323 5.2744V41.2744H97.6317L39.4586 -19.5979L13.4323 5.2744ZM10.8707 4.97796L-3.58447 -27.9925L-3.68881 -27.9467L-3.79287 -27.9003L10.8707 4.97796ZM12.0983 4.87915L13.0884 -31.1072L12.8091 -31.1149L12.5298 -31.1183L12.0983 4.87915ZM7.5261 9.18755L25.939 -21.7473L25.7935 -21.8339L25.6472 -21.9192L7.5261 9.18755ZM7.65754 11.5925L-14.1658 -17.0387L-14.2062 -17.0078L-14.2465 -16.9769L7.65754 11.5925ZM6.06818 11.6913L-11.6423 43.0336L-11.5996 43.0577L-11.5569 43.0817L6.06818 11.6913ZM19.4216 13.084L42.8135 -14.2806L32.9954 -22.6733L20.0812 -22.91L19.4216 13.084ZM19.554 13.372L-13.8969 0.066412L-14.0235 0.384745L-14.1441 0.70543L19.554 13.372ZM11.9828 13.4951L11.8668 49.4949L11.8813 49.4949L11.8958 49.495L11.9828 13.4951ZM4.461 13.4708L-31.2473 18.0441L-27.2355 49.3689L4.345 49.4706L4.461 13.4708ZM4.43676 13.2816L-31.2775 17.8087L-31.2745 17.8318L-31.2716 17.8549L4.43676 13.2816ZM4.60176 13.0262L16.5237 46.9948L18.1268 46.4322L19.6697 45.7211L4.60176 13.0262ZM12.0078 12.9432V48.9432H12.0273L12.0467 48.9432L12.0078 12.9432ZM19.4213 13.084L-2.70543 41.4813L6.76183 48.858L18.7617 49.0779L19.4213 13.084ZM18.5239 14.9539L54.4152 17.7492L54.4222 17.6604L54.4286 17.5715L18.5239 14.9539ZM15.7068 19.1878L31.0809 51.7399L31.0968 51.7323L31.1128 51.7248L15.7068 19.1878ZM15.2529 19.4022V55.4022H23.3265L30.6269 51.9543L15.2529 19.4022ZM8.74529 19.4022L-7.17938 51.6885L0.349927 55.4022H8.74529V19.4022ZM8.19345 19.13L24.1181 -13.1563L23.9958 -13.2167L23.873 -13.2761L8.19345 19.13ZM5.81268 16.4286L39.3925 3.45198L39.3508 3.3441L39.3085 3.23648L5.81268 16.4286ZM5.48269 14.624L29.7847 41.1836L32.7746 38.4478L35.0814 35.1158L5.48269 14.624ZM12.032 14.5997L12.1659 -21.4L12.1411 -21.4001L12.1163 -21.4002L12.032 14.5997ZM18.548 14.624L54.4527 17.2415L57.2575 -21.2323L18.6819 -21.3758L18.548 14.624ZM7.0958 -34.0077C-0.831132 -32.4641 -6.9043 -28.721 -10.9731 -25.2496C-14.5982 -22.1568 -20.9732 -15.5688 -23.5317 -4.96753L46.4589 11.9238C44.1231 21.6023 38.4565 27.2222 35.7582 29.5243C32.6162 32.2049 27.6883 35.3347 20.8576 36.6649L7.0958 -34.0077ZM-23.2761 -5.96386C-22.5813 -8.52029 -19.6687 -18.5784 -9.25994 -25.8477C-4.95015 -28.8576 -0.934652 -30.2457 1.3533 -30.8993C3.56951 -31.5324 5.33385 -31.794 5.86178 -31.8712L16.275 39.3718C16.9432 39.2742 18.8209 38.991 21.1298 38.3314C23.5105 37.6514 27.598 36.2319 31.9653 33.1818C42.4892 25.8321 45.4591 15.6584 46.2033 12.9202L-23.2761 -5.96386ZM4.98183 -31.7314C-0.388255 -30.8102 -4.60732 -28.884 -7.41185 -27.2975C-9.93128 -25.8723 -14.6011 -22.8774 -18.7425 -17.5268L38.1947 26.5431C36.0302 29.3396 33.8706 31.2528 32.4216 32.4083C30.871 33.6449 29.3784 34.6125 28.0392 35.3701C25.7224 36.6807 22.0468 38.3929 17.1549 39.2321L4.98183 -31.7314ZM-19.016 -17.1688C-21.6156 -13.722 -24.5128 -8.69023 -25.9313 -2.17408C-26.99 2.6889 -29.1655 18.5633 -16.0924 31.6363L34.8193 -19.2753C47.5959 -6.49871 45.35 8.87324 44.421 13.141C43.132 19.062 40.5643 23.4058 38.4681 26.1852L-19.016 -17.1688ZM-16.0924 31.6363C-13.5218 34.207 -8.80705 38.1579 -1.68434 40.488C2.98252 42.0147 6.94162 42.2096 7.58886 42.2504C9.37433 42.363 11.4973 42.3455 11.9997 42.3455V-29.6545C10.1371 -29.6545 11.0202 -29.6762 12.118 -29.607C12.4214 -29.5879 16.1746 -29.4244 20.7021 -27.9433C23.474 -27.0365 26.4705 -25.6774 29.4448 -23.6873C32.2621 -21.8021 34.1559 -19.9387 34.8193 -19.2753L-16.0924 31.6363ZM11.9997 42.3455C12.5022 42.3455 14.6243 42.3629 16.4093 42.2505C17.0569 42.2097 21.0111 42.0149 25.6729 40.4915C32.7883 38.1662 37.5075 34.2216 40.0966 31.6314L-10.8249 -19.2704C-10.1524 -19.9432 -8.25504 -21.809 -5.43291 -23.6957C-2.45667 -25.6853 0.539707 -27.0422 3.3078 -27.9468C7.82997 -29.4246 11.5782 -29.5879 11.8818 -29.607C12.9789 -29.6761 13.8611 -29.6545 11.9997 -29.6545V42.3455ZM40.0917 31.6363C46.2259 25.5022 50.3476 16.9873 50.7594 7.36796C51.0653 0.221898 49.1396 -5.22799 48.7011 -6.49629L-19.3473 17.0284C-19.6208 16.2374 -21.4683 11.1459 -21.1747 4.28833C-21.0056 0.338523 -20.1441 -4.17102 -18.0738 -8.76636C-16.0207 -13.3232 -13.3109 -16.7844 -10.82 -19.2753L40.0917 31.6363ZM48.592 -6.80711C44.3171 -18.8162 34.0656 -28.4462 20.7614 -31.3751L5.28132 38.9411C-6.52404 36.3421 -15.4909 27.8661 -19.2383 17.3392L48.592 -6.80711ZM21.1931 -31.2773C22.068 -31.0734 23.6392 -30.6713 25.57 -29.9325C26.3249 -29.6437 28.5949 -28.7612 31.2679 -27.1414C32.49 -26.4008 35.3728 -24.5755 38.388 -21.4763C40.5448 -19.2594 48.5758 -10.5717 48.5758 3.61053H-23.4242C-23.4242 17.803 -15.3871 26.502 -13.2185 28.731C-10.1916 31.8423 -7.29139 33.6805 -6.04686 34.4347C-3.32906 36.0816 -0.994191 36.9939 -0.158893 37.3135C1.93271 38.1137 3.72677 38.5815 4.84961 38.8433L21.1931 -31.2773ZM48.5758 3.61053C48.5758 10.1221 46.7942 14.9894 45.996 16.9792C45.0344 19.3765 44.0072 21.1796 43.3905 22.1969C42.1579 24.2297 40.9955 25.6772 40.4844 26.298C39.3497 27.6763 38.3701 28.6434 37.8692 29.1231C37.2833 29.6841 36.5774 30.3159 35.7309 30.9898C35.2918 31.3393 33.1772 33.0419 30.0393 34.6518L-2.82767 -29.4088C-7.97036 -26.7703 -11.4109 -23.3744 -11.9288 -22.8784C-12.647 -22.1906 -13.8238 -21.0165 -15.1014 -19.4647C-15.684 -18.7571 -16.9042 -17.2312 -18.1768 -15.1324C-18.8136 -14.0821 -19.8563 -12.2491 -20.8284 -9.82557C-21.6371 -7.8095 -23.4242 -2.91953 -23.4242 3.61053H48.5758ZM30.5348 34.3927C24.1774 37.7802 18.4684 38.308 15.5824 38.3874C12.3412 38.4766 7.85415 38.1148 2.83238 36.1989L28.4976 -31.0715C22.8503 -33.226 17.5891 -33.695 13.6023 -33.5853C9.97092 -33.4854 3.54502 -32.8094 -3.32319 -29.1497L30.5348 34.3927ZM3.05221 36.2819C-2.4523 34.2229 -6.21153 31.2138 -8.44873 29.0508C-10.8056 26.7721 -13.3059 23.6596 -15.2596 19.5489L49.7701 -11.3565C46.0416 -19.2019 38.8694 -27.1926 28.2777 -31.1545L3.05221 36.2819ZM-15.3771 19.2992L-15.1543 19.7774L50.1104 -10.6286L49.8876 -11.1068L-15.3771 19.2992ZM-18.522 4.5744V11.823H53.478V4.5744H-18.522ZM17.2662 -24.1764L12.9903 -24.1513L13.4141 47.8475L17.6899 47.8223L17.2662 -24.1764ZM13.0528 -24.1516C10.6583 -24.1416 10.4069 -24.1487 10.6335 -24.1419C10.7735 -24.1377 11.3643 -24.12 12.1704 -24.054C12.6274 -24.0165 14.9473 -23.8392 17.8513 -23.1076C19.3387 -22.7329 22.2441 -21.9083 25.6099 -20.1597C28.9502 -18.4243 34.5859 -14.8245 39.0618 -8.02417C49.8335 8.34148 42.8401 24.1687 41.9888 26.1199L-24.004 -2.6716C-24.8697 -0.687282 -31.8687 15.1691 -21.0801 31.5605C-12.9065 43.9789 -0.378702 46.5494 0.262788 46.711C3.24278 47.4618 5.67511 47.6552 6.2947 47.7059C7.26356 47.7852 8.06725 47.8136 8.48435 47.826C9.81905 47.8659 11.7015 47.8547 13.3515 47.8478L13.0528 -24.1516ZM41.9254 26.2643C43.0201 23.785 45.045 18.6516 45.3106 11.8765C45.6028 4.42392 43.6678 -1.58475 41.8307 -5.60221L-23.6483 24.3393C-25.1311 21.0965 -26.8974 15.7716 -26.6341 9.05612C-26.3974 3.01811 -24.599 -1.32477 -23.9406 -2.81599L41.9254 26.2643ZM41.7617 -5.7524C27.9049 -35.6915 -14.5834 -35.5078 -28.2859 -5.63045L37.1596 24.3843C25.2861 50.2739 -11.5681 50.4408 -23.5792 24.4895L41.7617 -5.7524ZM-28.3754 -5.43361C-32.8163 4.4049 -32.7529 15.3161 -29.0467 24.6491L37.8701 -1.9242C41.0655 6.12243 41.1624 15.5179 37.2492 24.1875L-28.3754 -5.43361ZM-29.3536 23.8486C-29.2923 24.0143 -29.4395 23.6251 -29.6164 23.0957C-29.6596 22.9666 -30.0097 21.9365 -30.3519 20.5781C-30.4622 20.1404 -30.994 18.0687 -31.2625 15.354C-31.3719 14.2479 -31.7013 10.72 -31.0067 6.2688C-30.6523 3.9971 -29.7885 -0.182127 -27.3321 -4.87445C-24.7439 -9.81861 -19.6908 -16.545 -10.7872 -20.7414L19.9089 44.3873C37.3727 36.1564 39.8303 19.3054 40.1323 17.3697C40.8276 12.9145 40.4981 9.38128 40.388 8.26835C40.1182 5.53992 39.5825 3.44904 39.4661 2.98711C39.1116 1.58027 38.7404 0.481817 38.6694 0.269367C38.4368 -0.426623 38.2071 -1.04239 38.177 -1.12372L-29.3536 23.8486ZM-20.895 -13.6329C-19.4791 -15.0488 -18.2416 -16.0463 -17.6074 -16.5419C-16.8871 -17.1049 -16.2758 -17.538 -15.8728 -17.8159C-15.0825 -18.3606 -14.4356 -18.7591 -14.112 -18.9554C-13.4424 -19.3615 -12.9067 -19.6555 -12.7149 -19.7604C-12.2691 -20.004 -11.9189 -20.1824 -11.8436 -20.2208C-11.7131 -20.2874 -11.6146 -20.3366 -11.5796 -20.354C-11.5372 -20.3752 -11.509 -20.3891 -11.5076 -20.3898C-11.4272 -20.4295 -11.7288 -20.281 -11.8939 -20.1988L20.1916 44.2568C20.1812 44.2619 20.1832 44.2609 20.2129 44.2463C20.2295 44.2381 20.2422 44.2318 20.2705 44.2179C20.2932 44.2067 20.3308 44.1882 20.3711 44.1683C20.4048 44.1517 20.6304 44.0405 20.8895 43.9083C20.9871 43.8585 21.3552 43.6707 21.8139 43.4201C22.0121 43.3117 22.5529 43.0148 23.2264 42.6063C23.5519 42.4089 24.2004 42.0094 24.9919 41.4638C25.3955 41.1856 26.0073 40.752 26.7281 40.1887C27.3627 39.6928 28.6005 38.695 30.0167 37.2788L-20.895 -13.6329ZM-11.1654 -20.5513C-35.3963 -9.16167 -44.2148 31.4196 -11.4541 47.032L19.5206 -17.9646C33.0715 -11.5068 39.8251 2.11383 39.2445 14.9184C38.6757 27.461 31.2811 39.0542 19.4631 44.6092L-11.1654 -20.5513ZM-11.2784 47.1152C-11.3291 47.0913 -11.9429 46.8057 -12.7099 46.4C-13.501 45.9816 -14.9469 45.181 -16.6385 43.981C-20.673 41.1191 -24.7585 36.9425 -27.7014 31.2462C-30.1462 26.514 -30.9025 22.3969 -31.1349 21.0583C-31.2803 20.2209 -31.362 19.5643 -31.3987 19.2529C-31.4371 18.9283 -31.4597 18.6916 -31.462 18.6678L40.2034 11.7344C40.1977 11.6761 40.0784 10.3229 39.8033 8.73917C39.5442 7.2469 38.7561 3.01813 36.2662 -1.8015C33.278 -7.58537 29.1339 -11.8253 25.0191 -14.7442C23.2873 -15.9726 21.7959 -16.8001 20.9528 -17.246C20.1338 -17.6792 19.4615 -17.993 19.3449 -18.0478L-11.2784 47.1152ZM-31.4385 18.9026C-30.0969 31.8816 -22.2342 45.5107 -8.31096 52.3666L23.4955 -12.2271C29.5926 -9.22485 33.3347 -5.0036 35.468 -1.77687C37.6698 1.5536 39.6118 6.00391 40.1799 11.4996L-31.4385 18.9026ZM-8.14834 52.4462C-8.64738 52.2036 -9.27134 51.882 -10.0117 51.4533C-10.2958 51.2888 -11.1361 50.7993 -12.1857 50.0802C-12.5874 49.805 -13.9093 48.8963 -15.4617 47.5427C-16.1474 46.9449 -17.8963 45.3889 -19.7733 43.0705C-20.717 41.9049 -22.3324 39.7693 -23.8484 36.8027C-25.2004 34.157 -27.7906 28.3295 -27.7906 20.424H44.2094C44.2094 12.5169 41.6185 6.68757 40.2655 4.03977C38.7484 1.071 37.1314 -1.06697 36.1856 -2.23513C34.3043 -4.55882 32.5491 -6.12111 31.8551 -6.72621C30.286 -8.09426 28.9397 -9.02125 28.5065 -9.31801C27.3939 -10.0802 26.4626 -10.626 26.0664 -10.8554C25.1019 -11.4139 24.1694 -11.9 23.3329 -12.3067L-8.14834 52.4462ZM-27.7906 20.424C-27.7906 15.7907 -26.8905 12.1513 -26.2689 10.0875C-25.6019 7.87323 -24.841 6.12916 -24.2949 4.98792C-23.2267 2.75571 -22.1524 1.11934 -21.5758 0.280182C-20.3701 -1.47433 -19.2617 -2.7341 -18.5996 -3.44892C-17.8645 -4.24257 -16.9629 -5.13446 -15.8643 -6.06882C-15.1481 -6.67802 -12.6924 -8.75202 -8.96966 -10.6135L23.2313 53.7844C29.5124 50.6437 33.4223 46.3417 34.2237 45.4766C35.1081 44.5217 36.4151 43.0204 37.7639 41.0576C38.4121 40.1144 39.544 38.3822 40.652 36.0669C41.2947 34.7237 44.2094 28.7199 44.2094 20.424H-27.7906ZM-9.64782 -10.2654C-11.1847 -9.45577 -17.9382 -5.94068 -23.1424 1.86572C-28.8872 10.4831 -29.2728 18.9028 -29.2728 22.1951H42.7272C42.7272 25.1742 42.3869 33.3716 36.7655 41.8037C31.6848 49.4248 25.1332 52.7917 23.9095 53.4363L-9.64782 -10.2654ZM-29.2728 22.1951C-29.2728 30.3847 -26.5193 36.45 -24.9492 39.379C-23.1424 42.7495 -21.0227 45.439 -19.0254 47.5138C-17.0387 49.5777 -14.3585 51.8796 -10.8847 53.8802C-7.85562 55.6246 -1.46744 58.7386 7.25388 58.7386V-13.2614C15.8685 -13.2614 22.1375 -10.1887 25.0477 -8.51261C28.4028 -6.5804 30.9647 -4.37412 32.8464 -2.41929C34.7387 -0.453539 36.7668 2.11349 38.5082 5.36193C40.0129 8.16897 42.7272 14.1127 42.7272 22.1951H-29.2728ZM7.25388 58.7386C16.7922 58.7386 23.567 54.9729 25.4742 53.8887C28.3839 52.2346 30.6046 50.4616 32.111 49.1231C34.9054 46.6402 38.2478 42.9681 40.8924 37.9955L-22.6765 4.18737C-20.4523 0.00524693 -17.802 -2.84331 -15.7121 -4.70023C-14.5579 -5.72576 -12.6925 -7.23521 -10.1089 -8.70399C-8.79471 -9.45106 -6.83593 -10.4502 -4.32328 -11.3198C-1.95473 -12.1396 2.09249 -13.2614 7.25388 -13.2614V58.7386ZM40.8774 38.0237L41.1412 37.5288L-22.3977 3.66413L-22.6615 4.15911L40.8774 38.0237ZM9.37177 56.5964H11.9249V-15.4036H9.37177V56.5964ZM11.9249 56.5964C12.6781 56.5964 13.4341 56.5943 14.0508 56.5889C14.337 56.5865 14.7192 56.5823 15.0975 56.574C15.2527 56.5706 15.6345 56.5619 16.0915 56.5413C16.2791 56.5328 16.8188 56.5079 17.4997 56.4512C17.8108 56.4254 18.5362 56.362 19.4529 56.2354C19.9095 56.1724 20.7132 56.0531 21.706 55.8513C22.4071 55.7088 24.6161 55.2522 27.3083 54.2306L1.76526 -13.0862C3.26768 -13.6563 4.52357 -14.0168 5.31073 -14.2254C6.14675 -14.4471 6.85386 -14.6021 7.36207 -14.7054C8.3524 -14.9067 9.15321 -15.0255 9.60627 -15.0881C10.5161 -15.2137 11.2324 -15.2761 11.5322 -15.301C12.1907 -15.3558 12.6996 -15.3789 12.8485 -15.3857C13.2281 -15.4028 13.5006 -15.4083 13.5184 -15.4087C13.6218 -15.4109 13.6162 -15.41 13.4297 -15.4084C13.101 -15.4056 12.5719 -15.4036 11.9249 -15.4036V56.5964ZM23.5021 55.438C13.42 58.0305 5.23514 55.5845 1.45628 54.1098C-2.59134 52.5302 -5.44912 50.5622 -6.86931 49.5106C-9.74423 47.3818 -11.6267 45.3049 -12.2677 44.5873C-13.8158 42.8544 -14.8303 41.3668 -15.1529 40.8905C-16.0079 39.6283 -16.5985 38.5734 -16.9591 37.893L46.6573 4.17427C46.1568 3.23008 45.4264 1.94023 44.4584 0.511175C44.0793 -0.0485326 43.015 -1.60254 41.4271 -3.37999C40.7662 -4.11982 38.8664 -6.21349 35.977 -8.35297C34.5496 -9.40993 31.6853 -11.3817 27.632 -12.9635C23.8474 -14.4405 15.6577 -16.8871 5.57146 -14.2936L23.5021 55.438ZM-16.9089 37.9875C-14.5122 42.477 -10.4925 47.9932 -4.00432 52.3565L36.1746 -7.39014C41.7064 -3.67005 44.8871 0.85799 46.607 4.0798L-16.9089 37.9875ZM-3.62627 52.6072C-2.83645 53.1241 3.75295 57.7146 13.4133 58.5812C26.2055 59.7288 35.3732 54.0499 39.6862 50.5641L-5.57141 -5.4337C-1.55485 -8.6799 7.35328 -14.2516 19.8466 -13.1308C29.2083 -12.291 35.4598 -7.8613 35.7965 -7.64092L-3.62627 52.6072ZM39.449 50.7541C48.2717 43.7459 55.6103 30.7833 52.6274 15.2654C49.9148 1.15371 40.2274 -6.91188 33.1969 -10.49L0.539422 53.6777C-6.02216 50.3383 -15.4336 42.6143 -18.0782 28.8567C-20.9931 13.6927 -13.7944 1.09648 -5.33422 -5.62374L39.449 50.7541ZM33.2137 -10.4814C36.3179 -8.89948 38.4664 -7.21302 39.5001 -6.35544C40.7199 -5.34358 41.7782 -4.31702 42.7027 -3.30841C43.5419 -2.39284 44.868 -0.844145 46.2407 1.30621C46.921 2.37193 48.0085 4.19953 49.0282 6.63698C49.8532 8.60902 51.7887 13.637 51.7887 20.4156H-20.2113C-20.2113 27.2581 -18.2557 32.3638 -17.3939 34.4239C-16.3373 36.9494 -15.1962 38.8753 -14.4489 40.0461C-12.9422 42.4065 -11.4281 44.192 -10.3737 45.3424C-8.81343 47.0446 -5.15628 50.7752 0.522559 53.6691L33.2137 -10.4814ZM51.7887 20.4156C51.7887 28.3297 49.1932 34.1641 47.8333 36.82C46.3107 39.7938 44.6879 41.9334 43.7398 43.101C41.8545 45.4231 40.098 46.98 39.4106 47.5772C37.8539 48.9295 36.5287 49.8367 36.1292 50.1093C35.0829 50.8233 34.246 51.309 33.9713 51.4676C33.247 51.8858 32.647 52.1942 32.1858 52.4191L0.627692 -12.2963C-0.171914 -11.9064 -1.08087 -11.4335 -2.02961 -10.8857C-2.41652 -10.6623 -3.34446 -10.1206 -4.45381 -9.36358C-4.88481 -9.06947 -6.23453 -8.1441 -7.80784 -6.77734C-8.50356 -6.17296 -10.2664 -4.60975 -12.156 -2.28243C-13.1061 -1.1122 -14.7305 1.02975 -16.2543 4.00566C-17.6152 6.66367 -20.2113 12.4999 -20.2113 20.4156H51.7887ZM32.3799 52.3237C46.7403 45.2138 53.9334 31.551 55.3716 19.3483L-16.1336 10.9212C-15.2061 3.05164 -10.5002 -6.78761 0.433523 -12.2009L32.3799 52.3237ZM55.3187 19.775C55.3142 19.8095 55.2777 20.0933 55.2189 20.4742C55.1616 20.846 55.04 21.5961 54.8333 22.5433C54.4519 24.2916 53.4465 28.3622 50.7642 32.9314C47.768 38.0354 44.0271 41.5217 40.9061 43.7773C39.5397 44.7649 38.381 45.4522 37.7236 45.827C37.0748 46.1968 36.5648 46.4585 36.4595 46.5127L3.52052 -17.5109C3.34323 -17.4197 2.7694 -17.1243 2.06386 -16.7221C1.34971 -16.3149 0.141403 -15.5967 -1.26883 -14.5774C-4.4773 -12.2586 -8.2822 -8.7065 -11.3279 -3.51811C-14.0597 1.1355 -15.1002 5.30894 -15.5117 7.19463C-15.8969 8.96034 -16.0775 10.4703 -16.0807 10.4945L55.3187 19.775ZM36.2219 46.6338C46.4483 41.468 54.2153 31.6121 56.2244 19.4226C58.205 7.40668 54.1363 -3.88278 47.019 -11.7413L-6.34736 36.5912C-12.8382 29.4243 -16.672 18.9668 -14.817 7.71299C-12.9335 -3.71448 -5.65261 -12.8782 3.75808 -17.632L36.2219 46.6338ZM47.0886 -11.6643C44.8028 -14.2028 40.7225 -18.0732 34.4995 -20.8619C28.2503 -23.6623 22.6035 -24.1353 19.0839 -24.1353V47.8647C16.1162 47.8647 10.9099 47.4658 5.05592 44.8426C-0.77188 42.231 -4.5021 38.6407 -6.4169 36.5142L47.0886 -11.6643ZM19.0839 -24.1353H18.6719V47.8647H19.0839V-24.1353ZM54.6719 11.8647V8.4212H-17.3281V11.8647H54.6719ZM54.6719 8.4212C54.6719 7.09613 54.6683 5.66429 54.629 4.42205C54.6021 3.56952 54.5239 0.251931 53.6248 -3.64169L-16.5289 12.559C-16.965 10.6705 -17.15 9.12866 -17.236 8.20501C-17.3157 7.34918 -17.3331 6.75784 -17.3351 6.69595C-17.3383 6.59263 -17.3352 6.64883 -17.3323 6.99078C-17.3296 7.3131 -17.3281 7.76714 -17.3281 8.4212H54.6719ZM53.5822 -3.82374C49.0589 -22.9571 29.8259 -38.4694 7.04266 -33.9973L20.9107 36.6545C2.16372 40.3343 -12.968 27.6238 -16.4864 12.7411L53.5822 -3.82374ZM-12.7749 29.9574L-12.594 30.1467L39.4586 -19.5979L39.2778 -19.7871L-12.7749 29.9574ZM13.4323 -30.7256H12.0154V41.2744H13.4323V-30.7256ZM12.0154 -30.7256C11.7721 -30.7256 12.0971 -30.7302 12.6592 -30.7066C12.9474 -30.6944 13.6198 -30.6624 14.5024 -30.5729C15.1504 -30.5072 17.1784 -30.2937 19.7287 -29.6326C21.0182 -29.2984 23.3465 -28.6225 26.0832 -27.3232C28.5065 -26.1727 33.6528 -23.4238 38.2979 -17.8357C43.7554 -11.2701 47.5873 -1.75673 46.3879 9.10399C45.3475 18.5251 40.9423 24.8925 38.5602 27.8246C34.1741 33.2237 29.2775 35.9064 28.7067 36.236C27.1936 37.1096 25.9668 37.6633 25.5342 37.8562L-3.79287 -27.9003C-4.35926 -27.6477 -5.69615 -27.04 -7.29378 -26.1176C-7.94921 -25.7391 -12.9048 -23.0127 -17.3227 -17.5747C-19.7206 -14.6231 -24.1348 -8.2374 -25.177 1.20093C-26.3783 12.0789 -22.5413 21.6083 -17.0712 28.1889C-12.4137 33.7921 -7.24752 36.555 -4.79686 37.7185C-2.03277 39.0308 0.330401 39.7186 1.66264 40.064C5.91236 41.1655 9.63009 41.2297 9.63329 41.2298C10.6302 41.2718 11.5297 41.2744 12.0154 41.2744V-30.7256ZM25.3258 37.9484C22.3916 39.2348 19.8263 39.884 18.0813 40.2318C16.3412 40.5787 14.9332 40.7192 14.1128 40.7837C13.2619 40.8505 12.6081 40.8678 12.2836 40.8736C11.94 40.8798 11.71 40.8771 11.6669 40.8766L12.5298 -31.1183C11.9526 -31.1252 10.3584 -31.1432 8.47305 -30.9951C6.98771 -30.8784 2.06656 -30.47 -3.58447 -27.9925L25.3258 37.9484ZM11.1083 40.8655C11.346 40.8721 11.0592 40.8667 10.6363 40.8433C10.356 40.8278 8.74848 40.746 6.6766 40.3797C4.34315 39.9672 0.465001 39.0416 -3.85665 36.7296C-8.23816 34.3855 -11.075 31.6704 -12.2044 30.541L38.7073 -20.3707C37.4954 -21.5825 34.5833 -24.3616 30.1077 -26.756C25.692 -29.1184 21.7011 -30.0806 19.2101 -30.521C16.9807 -30.9151 15.1708 -31.0159 14.6175 -31.0466C13.9217 -31.0851 13.2911 -31.1017 13.0884 -31.1072L11.1083 40.8655ZM-10.8868 40.1224C-32.0486 27.5266 -33.55 -2.26353 -14.1658 -17.0387L29.4808 40.2237C50.4647 24.2293 48.8141 -8.13172 25.939 -21.7473L-10.8868 40.1224ZM-14.2465 -16.9769C-7.65696 -22.0291 -0.647522 -23.7458 4.68742 -24.0716C10.0646 -24.4 16.8949 -23.5162 23.6932 -19.6991L-11.5569 43.0817C-4.28868 47.1627 3.12651 48.1578 9.07607 47.7945C14.9834 47.4338 22.5526 45.5358 29.5616 40.1619L-14.2465 -16.9769ZM23.7786 -19.651C29.3973 -16.4761 33.5466 -12.0788 36.3337 -7.47268C39.0984 -2.90355 41.3262 3.21949 41.3262 10.4637H-30.6738C-30.6738 24.7952 -22.6 36.8418 -11.6423 43.0336L23.7786 -19.651ZM41.3262 10.4637C41.3262 36.5483 12.8555 53.9552 -10.595 40.2942L25.6472 -21.9192C0.186929 -36.7509 -30.6738 -17.9439 -30.6738 10.4637H41.3262ZM-3.9703 40.4485C-6.58343 38.2148 -10.3974 34.2907 -13.1634 28.2765C-16.0155 22.0751 -18.4901 11.6138 -13.8969 0.066412L53.0048 26.6776C57.6306 15.0482 55.1477 4.49233 52.2501 -1.80791C49.4387 -7.92086 45.5422 -11.948 42.8135 -14.2806L-3.9703 40.4485ZM-14.1441 0.70543C-11.9223 -5.20534 -8.24559 -10.2703 -3.66166 -14.1332C0.457803 -17.6048 4.45967 -19.3925 6.85951 -20.2924C11.1731 -21.9099 14.7831 -22.2671 15.3162 -22.3268C17.0976 -22.5266 18.4455 -22.517 17.7735 -22.5062C17.1785 -22.4966 15.7321 -22.496 12.0698 -22.5048L11.8958 49.495C15.1783 49.5029 17.4927 49.5077 18.9348 49.4844C19.2813 49.4789 21.2167 49.4627 23.3373 49.225C24.0399 49.1462 27.7574 48.7669 32.1391 47.1238C37.3311 45.1769 48.1674 39.5656 53.252 26.0386L-14.1441 0.70543ZM12.0988 -22.5047L4.57699 -22.529L4.345 49.4706L11.8668 49.4949L12.0988 -22.5047ZM40.1693 8.89754L40.1451 8.70831L-31.2716 17.8549L-31.2473 18.0441L40.1693 8.89754ZM40.151 8.7545C40.638 12.5967 41.2196 22.2495 34.9734 32.2263C28.8266 42.0443 20.0801 45.7466 16.5237 46.9948L-7.32023 -20.9424C-11.0173 -19.6448 -19.8547 -15.881 -26.053 -5.98072C-32.3508 4.07837 -31.7813 13.8341 -31.2775 17.8087L40.151 8.7545ZM19.6697 45.7211C17.9699 46.5045 16.528 47.007 15.606 47.3029C14.6322 47.6155 13.8036 47.8354 13.2041 47.9828C12.0367 48.2698 11.0888 48.4399 10.5511 48.5297C9.47286 48.7098 8.62414 48.7995 8.27342 48.8349C7.50223 48.9128 6.91525 48.9452 6.76437 48.9535C6.36462 48.9756 6.11677 48.981 6.19496 48.9788C6.27007 48.9768 6.56599 48.9705 7.15473 48.9639C8.27966 48.9514 9.9595 48.9432 12.0078 48.9432V-23.0568C9.81293 -23.0568 7.84335 -23.0482 6.35284 -23.0316C5.63388 -23.0236 4.88058 -23.0122 4.22 -22.9941C3.93034 -22.9861 3.39303 -22.97 2.78908 -22.9366C2.53611 -22.9227 1.86834 -22.8845 1.03854 -22.8007C0.65851 -22.7623 -0.213969 -22.6696 -1.31035 -22.4865C-1.85712 -22.3952 -2.81264 -22.2235 -3.98628 -21.935C-4.83658 -21.7259 -7.40292 -21.0805 -10.4662 -19.6687L19.6697 45.7211ZM12.0467 48.9432C15.7231 48.9392 17.0434 48.9418 17.5464 48.9514C18.1491 48.963 16.6662 48.9686 14.7239 48.7275C13.6546 48.5948 10.9502 48.2213 7.64583 47.087C5.83803 46.4664 3.89975 45.6382 1.91339 44.5357C-0.0839931 43.4271 -1.63717 42.3137 -2.70543 41.4813L41.5479 -15.3134C34.2139 -21.0279 26.7988 -22.3263 23.5908 -22.7244C21.3202 -23.0062 19.2894 -23.0284 18.9243 -23.0354C17.4914 -23.0628 15.1953 -23.0602 11.9689 -23.0568L12.0467 48.9432ZM18.7617 49.0779L18.762 49.0779L20.0812 -22.91L20.0808 -22.91L18.7617 49.0779ZM-17.3674 12.1586C-16.9252 6.48067 -14.9847 1.50728 -12.3213 -2.48987C-9.6825 -6.45013 -5.58046 -10.5645 0.300893 -13.3492L31.1128 51.7248C45.0728 45.1149 53.3403 31.5516 54.4152 17.7492L-17.3674 12.1586ZM0.332814 -13.3643L-0.121143 -13.1499L30.6269 51.9543L31.0809 51.7399L0.332814 -13.3643ZM15.2529 -16.5978H8.74529V55.4022H15.2529V-16.5978ZM24.67 -12.8841L24.1181 -13.1563L-7.73123 51.4163L-7.17938 51.6885L24.67 -12.8841ZM23.873 -13.2761C32.0752 -9.30748 37.0008 -2.73712 39.3925 3.45198L-27.7672 29.4053C-24.4526 37.9825 -17.7651 46.5626 -7.48606 51.5361L23.873 -13.2761ZM39.3085 3.23648C40.4294 6.08276 40.8258 8.23983 40.9421 8.87517C41.0307 9.35958 41.2457 10.587 41.3669 12.2469C41.4168 12.9299 41.5492 14.8993 41.3558 17.4386C41.2632 18.6543 41.015 21.1974 40.1486 24.3092C39.5581 26.4302 37.2768 34.3283 29.7847 41.1836L-18.8193 -11.9357C-26.3238 -5.0691 -28.6149 2.84874 -29.2131 4.99711C-30.0871 8.13626 -30.3406 10.7142 -30.4364 11.9716C-30.6361 14.5944 -30.5015 16.6742 -30.4421 17.4881C-30.3018 19.4098 -30.0383 20.9807 -29.8816 21.837C-29.6292 23.2159 -29.0185 26.2301 -27.6831 29.6208L39.3085 3.23648ZM35.0814 35.1158C31.0302 40.9675 26.2813 44.11 24.1864 45.3838C21.7311 46.8767 19.6009 47.7653 18.3902 48.2302C15.9784 49.1565 14.0023 49.61 13.2239 49.7813C11.4778 50.1656 10.0905 50.3292 9.69389 50.3758C8.65219 50.4982 7.83657 50.5454 7.65554 50.5562C7.1071 50.5888 6.6925 50.5997 6.64303 50.6011C6.43212 50.6071 6.32729 50.6076 6.44608 50.6061C6.62249 50.604 6.98081 50.6013 7.54365 50.5994C8.6372 50.5956 10.1957 50.5955 11.9477 50.5996L12.1163 -21.4002C10.2853 -21.4045 8.57748 -21.4046 7.29634 -21.4002C6.67182 -21.398 6.06569 -21.3946 5.57238 -21.3886C5.35631 -21.386 4.99032 -21.381 4.6009 -21.3699C4.46217 -21.366 3.97899 -21.3524 3.38375 -21.317C3.17932 -21.3048 2.34575 -21.2562 1.29169 -21.1323C0.888886 -21.085 -0.503148 -20.9207 -2.25263 -20.5357C-3.03279 -20.3639 -5.01015 -19.9101 -7.42295 -18.9835C-8.63419 -18.5183 -10.7648 -17.6295 -13.2203 -16.1365C-15.3156 -14.8624 -20.0646 -11.7198 -24.1161 -5.86784L35.0814 35.1158ZM11.8981 50.5995L18.4141 50.6237L18.6819 -21.3758L12.1659 -21.4L11.8981 50.5995ZM-17.3567 12.0064L-17.3808 12.3364L54.4286 17.5715L54.4527 17.2415L-17.3567 12.0064Z" fill="currentColor" mask="url(#path-1-inside-1_4705_17751)"/>
<path d="M10.212 6.75777C9.96494 6.85658 9.89876 7.13622 10.0554 7.37486C10.2204 7.62189 10.5168 7.64705 10.706 7.43265C10.8878 7.22664 10.8794 7.03743 10.6818 6.83979C10.5 6.65801 10.4758 6.65057 10.212 6.75777ZM11.7603 6.81463C11.6289 6.90598 11.5879 7.0048 11.6037 7.19402C11.6531 7.72161 12.4119 7.65544 12.4119 7.12783C12.4119 6.80715 12.0325 6.61702 11.7603 6.81463ZM13.3338 6.80718C13.0131 7.02903 13.1772 7.58088 13.5566 7.58088C13.7542 7.58088 13.977 7.32547 13.977 7.10361C13.977 6.95539 13.7048 6.6748 13.565 6.6748C13.5398 6.6748 13.4326 6.7326 13.3338 6.80718ZM10.0555 8.03391C9.78326 8.44593 10.2204 8.89056 10.6399 8.6193C10.8879 8.45431 10.9121 8.15788 10.6977 7.96864C10.4759 7.77102 10.212 7.79527 10.0555 8.03391ZM11.6867 7.9267C11.5301 8.08331 11.5712 8.44593 11.7604 8.6193C11.917 8.75912 11.9505 8.75912 12.1482 8.64353C12.5518 8.42168 12.453 7.82788 12.0158 7.82788C11.8844 7.82788 11.7445 7.86984 11.6867 7.9267ZM13.2519 7.9267C13.0785 8.10009 13.1363 8.47108 13.3591 8.6193C13.5483 8.74234 13.5809 8.74234 13.7711 8.6193C13.9845 8.47947 14.034 8.24829 13.8941 7.98448C13.7953 7.80364 13.4084 7.77103 13.2519 7.9267Z" fill="currentColor"/>
</svg>
