<svg width="390" height="674" viewBox="0 0 390 674" fill="none" xmlns="http://www.w3.org/2000/svg">
<path d="M-20.5 256.353V202.5C-20.5 199.672 -20.5 198.257 -19.6213 197.379C-18.7426 196.5 -17.3284 196.5 -14.5 196.5L385.556 196.5C386.027 196.5 386.263 196.5 386.409 196.646C386.556 196.793 386.556 197.029 386.556 197.5V310.206C386.556 313.034 386.556 314.449 385.677 315.327C384.798 316.206 383.384 316.206 380.556 316.206H266.833M-20.5 256.353V310.206C-20.5 313.034 -20.5 314.449 -19.6213 315.327C-18.7426 316.206 -17.3284 316.206 -14.5 316.206L408.5 316.206C409.443 316.206 409.914 316.206 410.207 316.499C410.5 316.792 410.5 317.263 410.5 318.206L410.5 411.971M-20.5 256.353L-20.5 599.5C-20.5 601.386 -20.5 602.328 -19.9142 602.914C-19.3284 603.5 -18.3856 603.5 -16.5 603.5L408.5 603.5C409.443 603.5 409.914 603.5 410.207 603.207C410.5 602.914 410.5 602.443 410.5 601.5L410.5 507.735M410.5 507.735H268.833C267.89 507.735 267.419 507.735 267.126 507.442C266.833 507.15 266.833 506.678 266.833 505.735V413.971C266.833 413.028 266.833 412.556 267.126 412.263C267.419 411.971 267.89 411.971 268.833 411.971H410.5M410.5 507.735L410.5 411.971" stroke="#4DB8A6" stroke-opacity="0.1" stroke-width="60"/>
</svg>
