<svg width="390" height="526" viewBox="0 0 390 526" fill="none" xmlns="http://www.w3.org/2000/svg">
<path fill-rule="evenodd" clip-rule="evenodd" d="M413.908 44.0184C356.618 -13.6324 263.349 -13.6325 206.058 44.0183L-23.9075 275.43C-80.6923 332.572 -80.6923 424.839 -23.9075 481.981C33.383 539.632 126.652 539.632 183.942 481.981L413.908 250.569C470.693 193.427 470.693 101.16 413.908 44.0184ZM248.617 86.3116C282.446 52.2698 337.52 52.2699 371.349 86.3116C404.879 120.053 404.879 174.535 371.349 208.276L271.742 308.51C218.296 282.803 174.97 240.006 148.601 186.957L248.617 86.3116ZM104.401 231.435L18.6517 317.723C-14.8787 351.465 -14.8787 405.947 18.6517 439.688C52.4807 473.73 107.554 473.73 141.383 439.688L227.46 353.07C176.237 324.322 133.72 282.28 104.401 231.435Z" fill="#FC2C51" fill-opacity="0.07"/>
</svg>
