<svg width="390" height="635" viewBox="0 0 390 635" fill="none" xmlns="http://www.w3.org/2000/svg">
<path fill-rule="evenodd" clip-rule="evenodd" d="M87.5984 239.746C118.472 213.274 139.542 195.282 157.258 183.577C174.272 172.336 185.074 169.071 195 169.071C204.926 169.071 215.727 172.336 232.741 183.577C250.458 195.282 271.527 213.274 302.401 239.746L334.907 267.618C370.501 298.137 380.828 307.837 386.365 319.879C391.902 331.922 392.543 346.081 392.543 392.976V530.861C392.543 562.366 392.48 582.978 390.431 598.224C388.497 612.609 385.305 617.65 382.285 620.671C379.267 623.69 374.231 626.882 359.856 628.815C346.876 630.561 330.005 630.866 305.826 630.918V466.891C305.826 449.77 291.947 435.891 274.826 435.891H115.173C98.0525 435.891 84.1733 449.77 84.1733 466.891V630.918C59.9945 630.866 43.1234 630.561 30.1432 628.815C15.7679 626.882 10.7325 623.69 7.71432 620.671C4.69479 617.65 1.50213 612.609 -0.431221 598.224C-2.48042 582.978 -2.54409 562.366 -2.54409 530.861V392.976C-2.54409 346.081 -1.90281 331.922 3.63457 319.879C9.17132 307.837 19.4983 298.137 55.0921 267.618L87.5984 239.746ZM144.173 630.928H245.826V495.891H144.173V630.928ZM195 109.071C168.851 109.071 146.473 118.79 124.184 133.516C102.955 147.541 79.0472 168.042 50.0186 192.933L48.5435 194.197L16.0372 222.069C14.5367 223.356 13.055 224.624 11.5924 225.876L11.5872 225.881L11.5871 225.881C-17.5811 250.853 -39.161 269.328 -50.8793 294.814C-62.5971 320.3 -62.5758 348.711 -62.547 387.116L-62.547 387.116C-62.5456 389.044 -62.5441 390.997 -62.5441 392.976V530.861L-62.5442 532.867C-62.5456 561.81 -62.5467 586.498 -59.8965 606.217C-57.0695 627.251 -50.7412 647.063 -34.7191 663.09C-18.6955 679.119 1.11353 685.451 22.1458 688.28C41.859 690.931 66.54 690.93 95.4707 690.929H95.4732L97.4809 690.928H292.518L294.526 690.929H294.529C323.459 690.93 348.14 690.931 367.853 688.28C388.886 685.451 408.695 679.119 424.718 663.09C440.741 647.063 447.069 627.251 449.896 606.217C452.546 586.498 452.545 561.81 452.543 532.867L452.543 530.861V392.976C452.543 391.052 452.545 389.153 452.546 387.277L452.546 387.116C452.575 348.711 452.596 320.3 440.879 294.814C429.16 269.328 407.58 250.852 378.412 225.881C376.948 224.627 375.464 223.357 373.962 222.069L341.456 194.197L339.981 192.933L339.981 192.933C310.952 168.042 287.044 147.541 265.815 133.516C243.527 118.79 221.148 109.071 195 109.071Z" fill="#FF9900" fill-opacity="0.07"/>
</svg>
