<svg width="390" height="762" viewBox="0 0 390 762" fill="none" xmlns="http://www.w3.org/2000/svg">
<path fill-rule="evenodd" clip-rule="evenodd" d="M136.79 109.072C153.358 109.072 166.79 122.503 166.79 139.072V202.747L257.438 225.356L257.446 225.358C257.603 225.395 260.124 225.984 262.535 226.901C265.77 228.132 271.598 230.901 276.427 237.083C281.257 243.265 282.534 249.59 282.945 253.027C283.251 255.588 283.213 258.177 283.21 258.338L283.21 258.346V283.295H296.472L298.335 283.295C330.749 283.294 357.796 283.293 379.563 285.968C402.533 288.791 423.296 294.943 441.148 309.875C449.227 316.633 456.39 324.458 462.487 333.119C475.69 351.876 481.033 373.364 483.523 397.441C485.929 420.713 485.929 449.803 485.928 485.479V485.48V487.112V488.743V488.745C485.929 524.421 485.929 553.51 483.523 576.783C481.033 600.859 475.69 622.348 462.487 641.104C456.39 649.765 449.227 657.59 441.148 664.348C423.296 679.28 402.533 685.433 379.563 688.255C357.796 690.93 330.749 690.929 298.335 690.928H296.472H93.5277H91.6651C59.2505 690.929 32.2033 690.93 10.4372 688.255C-12.5329 685.433 -33.2958 679.28 -51.1478 664.348C-59.2269 657.59 -66.3901 649.765 -72.4869 641.104C-85.6901 622.348 -91.0328 600.859 -93.5228 576.783C-95.9297 553.51 -95.9293 524.42 -95.9287 488.744L-95.9287 487.112L-95.9287 485.479C-95.9293 449.803 -95.9297 420.713 -93.5228 397.441C-91.0328 373.364 -85.6901 351.876 -72.4869 333.119C-66.3901 324.458 -59.2269 316.633 -51.1478 309.875C-33.2958 294.943 -12.5329 288.791 10.4372 285.968C32.2033 283.293 59.2506 283.294 91.6652 283.295L93.5277 283.295H223.21V278.657L132.562 256.048L132.554 256.046C132.397 256.01 129.876 255.421 127.465 254.503C124.229 253.273 118.402 250.503 113.572 244.321C108.743 238.139 107.466 231.815 107.055 228.378C106.749 225.816 106.787 223.227 106.79 223.067L106.79 223.059V139.072C106.79 122.503 120.221 109.072 136.79 109.072ZM253.017 343.295H93.5277C58.767 343.295 35.4311 343.348 17.7554 345.52C0.868179 347.595 -7.08134 351.238 -12.6527 355.898C-16.6341 359.229 -20.2663 363.171 -23.4238 367.656C-28.1939 374.433 -31.8379 384.243 -33.8412 403.613C-35.8911 423.434 -35.9287 449.407 -35.9287 487.112C-35.9287 524.816 -35.8911 550.79 -33.8412 570.61C-31.8379 589.98 -28.1939 599.79 -23.4238 606.567C-20.2663 611.052 -16.6341 614.995 -12.6527 618.325C-7.08134 622.985 0.868172 626.628 17.7554 628.703C35.4311 630.875 58.767 630.928 93.5277 630.928H296.472C331.233 630.928 354.569 630.875 372.244 628.703C389.132 626.628 397.081 622.985 402.652 618.325C406.634 614.995 410.266 611.052 413.424 606.567C418.194 599.79 421.838 589.98 423.841 570.61C425.891 550.79 425.928 524.816 425.928 487.112C425.928 449.407 425.891 423.434 423.841 403.613C421.838 384.243 418.194 374.433 413.424 367.656C410.266 363.171 406.634 359.229 402.652 355.898C397.081 351.238 389.132 347.595 372.244 345.52C354.569 343.348 331.233 343.295 296.472 343.295H253.404C253.339 343.295 253.275 343.296 253.21 343.296C253.146 343.296 253.081 343.295 253.017 343.295ZM50.7848 400.701C50.4919 400.994 50.4919 401.465 50.4919 402.408V458.211H-6.12515C-7.06796 458.211 -7.53937 458.211 -7.83226 458.504C-8.12515 458.796 -8.12515 459.268 -8.12515 460.211V514.014C-8.12515 514.957 -8.12515 515.428 -7.83226 515.721C-7.53937 516.014 -7.06796 516.014 -6.12515 516.014H50.4919V571.818C50.4919 572.76 50.4919 573.232 50.7848 573.525C51.0777 573.818 51.5491 573.818 52.4919 573.818H106.295C107.238 573.818 107.709 573.818 108.002 573.525C108.295 573.232 108.295 572.76 108.295 571.818V516.014H164.099C165.041 516.014 165.513 516.014 165.806 515.721C166.099 515.428 166.099 514.957 166.099 514.014V460.211C166.099 459.268 166.099 458.796 165.806 458.504C165.513 458.211 165.041 458.211 164.099 458.211H108.295V402.408C108.295 401.465 108.295 400.994 108.002 400.701C107.709 400.408 107.238 400.408 106.295 400.408H52.4919C51.5491 400.408 51.0777 400.408 50.7848 400.701ZM224.194 486.999C223.901 487.292 223.901 487.763 223.901 488.706V542.509C223.901 543.452 223.901 543.923 224.194 544.216C224.487 544.509 224.958 544.509 225.901 544.509H279.704C280.647 544.509 281.119 544.509 281.411 544.216C281.704 543.923 281.704 543.452 281.704 542.509V488.706C281.704 487.763 281.704 487.292 281.411 486.999C281.119 486.706 280.647 486.706 279.704 486.706H225.901C224.958 486.706 224.487 486.706 224.194 486.999ZM311.306 429.195C311.014 429.487 311.014 429.959 311.014 430.902V484.705C311.014 485.648 311.014 486.119 311.306 486.412C311.599 486.705 312.071 486.705 313.014 486.705H366.817C367.76 486.705 368.231 486.705 368.524 486.412C368.817 486.119 368.817 485.648 368.817 484.705V430.902C368.817 429.959 368.817 429.487 368.524 429.195C368.231 428.902 367.76 428.902 366.817 428.902H313.014C312.071 428.902 311.599 428.902 311.306 429.195Z" fill="#FF6258" fill-opacity="0.07"/>
</svg>
