<svg width="24" height="24" viewBox="0 0 24 24" fill="none" xmlns="http://www.w3.org/2000/svg">
<path d="M16.2942 4.23038H14.2208C13.6056 3.47848 12.8309 3 12.0106 3C11.1904 3 10.4157 3.47848 9.8005 4.23038H7.72709C6.74734 4.23038 5.97266 5.02785 5.97266 5.98481V14.5519C5.97266 15.5316 6.77012 16.3063 7.72709 16.3063H8.13721C8.47899 17.0354 8.93468 17.6506 9.61823 17.9696L9.23088 20.4759C9.2081 20.6127 9.25367 20.7266 9.32202 20.8405C9.41316 20.9316 9.52709 21 9.6638 21H14.3347C14.4714 21 14.5853 20.9544 14.6765 20.8405C14.7676 20.7494 14.7904 20.6127 14.7676 20.4759L14.3803 17.9696C15.0866 17.6506 15.5423 17.0354 15.8613 16.3063H16.2714C17.2511 16.3063 18.0258 15.5089 18.0258 14.5519V6.0076C18.0714 5.02785 17.2739 4.23038 16.2942 4.23038ZM12.0106 3.86582C13.5828 3.86582 14.9727 6.66835 14.9727 8.87848C14.9727 10.7468 13.9701 11.7038 12.0106 11.7038C10.0511 11.7038 9.04861 10.7468 9.04861 8.87848C9.04861 6.69114 10.4385 3.86582 12.0106 3.86582ZM6.83848 6.0076C6.83848 5.52911 7.22582 5.11899 7.72709 5.11899H9.18531C9.00304 5.41519 8.86633 5.73418 8.72962 6.07595H6.83848V6.0076ZM7.33974 13.2759V13.8684C7.33974 13.8684 7.33974 13.8684 7.33974 13.8911C7.33974 13.9139 7.33974 13.9139 7.33974 13.9139C7.33974 13.9367 7.33974 13.9595 7.33974 13.9823C7.33974 13.9823 7.33974 13.9823 7.33974 14.0051C7.38531 14.1646 7.43088 14.3241 7.47645 14.4835C7.56759 14.8025 7.65873 15.1215 7.77266 15.4633H7.7043C7.22582 15.4633 6.81569 15.0759 6.81569 14.5747V6.96456H8.41063C8.22835 7.60253 8.13721 8.26329 8.13721 8.90127C8.13721 10.1544 8.52456 11.1114 9.27645 11.7494H8.84354C8.02329 11.7494 7.33974 12.4329 7.33974 13.2759ZM13.8106 17.2633C13.5828 17.3089 13.4461 17.5367 13.4916 17.7646L13.8334 20.1342H10.1878L10.5524 17.7873C10.598 17.5595 10.4385 17.3544 10.2334 17.2861C9.16253 17.0127 8.7524 15.6 8.38785 14.3241H15.679C15.2916 15.6 14.8815 17.0127 13.8106 17.2633ZM15.7929 13.4354H8.22835V13.2759C8.22835 12.9114 8.52455 12.6152 8.88911 12.6152H15.1549C15.5195 12.6152 15.8157 12.9114 15.8157 13.2759V13.4354H15.7929ZM17.1828 14.5747C17.1828 15.0532 16.7954 15.4633 16.2942 15.4633H16.2258C16.3397 15.1215 16.4309 14.8025 16.522 14.4835C16.5676 14.3241 16.6132 14.1646 16.6587 14.0051C16.6587 14.0051 16.6587 14.0051 16.6587 13.9823C16.6587 13.9595 16.6587 13.9367 16.6587 13.9139C16.6587 13.8911 16.6587 13.8911 16.6587 13.8684C16.6587 13.8684 16.6587 13.8684 16.6587 13.8456V13.2532C16.6587 12.4101 15.9752 11.7038 15.1094 11.7038H14.6765C15.4056 11.0658 15.8157 10.1089 15.8157 8.8557C15.8157 8.21772 15.7246 7.55696 15.5423 6.91899H17.1372V14.5747H17.1828ZM17.1828 6.07595H15.2916C15.1549 5.73418 14.9954 5.41519 14.8359 5.11899H16.2942C16.7727 5.11899 17.1828 5.50633 17.1828 6.0076V6.07595Z" fill="currentColor"/>
</svg>
