<svg width="174" height="135" viewBox="0 0 174 135" fill="none" xmlns="http://www.w3.org/2000/svg">
<path id="Vector" d="M165.514 15.2881C162.197 10.5267 157.832 7.23577 152.246 5.80036C149.906 5.17017 147.637 4.89009 145.437 4.89009C116.701 4.89009 96.9387 52.504 90.8633 69.3089C90.4094 70.5692 89.2572 71.2694 88.1049 71.2694C87.1622 71.2694 86.2195 70.8143 85.6259 69.904C74.6623 52.9241 38.3148 0.19873 9.05524 0.19873C4.20192 0.19873 -0.406982 1.63414 -4.70164 4.89009C-28.8984 23.2704 -7.18067 80.092 26.5132 128.476C49.9069 162.086 79.0617 191.599 102.63 201.367C107.972 203.608 113.035 204.798 117.679 204.798C126.862 204.798 134.403 200.107 139.257 189.219C139.257 189.184 139.292 189.184 139.292 189.149C167.678 125.185 185.451 43.6814 165.514 15.2881Z" fill="black" fill-opacity="0.05"/>
</svg>
